<?xml version="1.0" encoding="UTF-8"?>
<svg xmlns="http://www.w3.org/2000/svg" xmlns:xlink="http://www.w3.org/1999/xlink"
     width="147" height="400" viewBox="0 -400 147 400">
<defs>
</defs>
<path d="M10.2,-200 L57.2,-200 L57.2,-150 L10.2,-150 L10.2,-200 Z" fill="white" stroke="white" stroke-width="4" />
<path d="M10.2,-200 L15.42222222222222,-200 L15.42222222222222,-150 L10.2,-150 L10.2,-200 Z" fill="black" />
<path d="M15.42222222222222,-200 L20.644444444444442,-200 L20.644444444444442,-150 L15.42222222222222,-150 L15.42222222222222,-200 Z" fill="#f0f0f0" />
<path d="M20.644444444444442,-200 L25.866666666666664,-200 L25.866666666666664,-150 L20.644444444444442,-150 L20.644444444444442,-200 Z" fill="black" />
<path d="M25.866666666666664,-200 L31.088888888888885,-200 L31.088888888888885,-150 L25.866666666666664,-150 L25.866666666666664,-200 Z" fill="#f0f0f0" />
<path d="M31.088888888888885,-200 L36.31111111111111,-200 L36.31111111111111,-150 L31.088888888888885,-150 L31.088888888888885,-200 Z" fill="black" />
<path d="M36.31111111111111,-200 L41.53333333333333,-200 L41.53333333333333,-150 L36.31111111111111,-150 L36.31111111111111,-200 Z" fill="#f0f0f0" />
<path d="M41.53333333333333,-200 L46.75555555555555,-200 L46.75555555555555,-150 L41.53333333333333,-150 L41.53333333333333,-200 Z" fill="black" />
<path d="M46.75555555555555,-200 L51.977777777777774,-200 L51.977777777777774,-150 L46.75555555555555,-150 L46.75555555555555,-200 Z" fill="#f0f0f0" />
<path d="M51.977777777777774,-200 L57.199999999999996,-200 L57.199999999999996,-150 L51.977777777777774,-150 L51.977777777777774,-200 Z" fill="black" />
<text x="10.2" y="-210" font-size="26" fill="black" dy="0em">CRISPR</text>
<text x="16.0" y="-260" font-size="38" fill="black" dy="0em">Unknown: d2246f26c16fb9eec9|28ee291fbd50dba85d|28ee291fbd50dba85d|4419391|NZ_CABKTR010000009.1:61265-86849(REV)_1 (25087-25322)</text>
</svg>