<?xml version="1.0" encoding="UTF-8"?>
<svg xmlns="http://www.w3.org/2000/svg" xmlns:xlink="http://www.w3.org/1999/xlink"
     width="2044" height="1000" viewBox="0 -1000 2044 1000">
<defs>
</defs>
<path d="M210,-20 L210,-920" stroke="grey" stroke-width="1" fill="none" />
<text x="160" y="-930" font-size="22" fill="grey" dy="0em">1000</text>
<path d="M410,-20 L410,-920" stroke="grey" stroke-width="1" fill="none" />
<text x="360" y="-930" font-size="22" fill="grey" dy="0em">2000</text>
<path d="M610,-20 L610,-920" stroke="grey" stroke-width="1" fill="none" />
<text x="560" y="-930" font-size="22" fill="grey" dy="0em">3000</text>
<path d="M810,-20 L810,-920" stroke="grey" stroke-width="1" fill="none" />
<text x="760" y="-930" font-size="22" fill="grey" dy="0em">4000</text>
<path d="M1010,-20 L1010,-920" stroke="grey" stroke-width="1" fill="none" />
<text x="960" y="-930" font-size="22" fill="grey" dy="0em">5000</text>
<path d="M1210,-20 L1210,-920" stroke="grey" stroke-width="1" fill="none" />
<text x="1160" y="-930" font-size="22" fill="grey" dy="0em">6000</text>
<path d="M1410,-20 L1410,-920" stroke="grey" stroke-width="1" fill="none" />
<text x="1360" y="-930" font-size="22" fill="grey" dy="0em">7000</text>
<path d="M1610,-20 L1610,-920" stroke="grey" stroke-width="1" fill="none" />
<text x="1560" y="-930" font-size="22" fill="grey" dy="0em">8000</text>
<path d="M1810,-20 L1810,-920" stroke="grey" stroke-width="1" fill="none" />
<text x="1760" y="-930" font-size="22" fill="grey" dy="0em">9000</text>
<path d="M2010,-20 L2010,-920" stroke="grey" stroke-width="1" fill="none" />
<text x="1960" y="-930" font-size="22" fill="grey" dy="0em">10000</text>
<text x="16.0" y="-860" font-size="38" fill="black" dy="0em">I-B: c1050b21cc75640d51|a95cff64ff7885510a|a95cff64ff7885510a|1407411|PAPI01000003.1:0-17910(FWD)@1 (8635-17859)</text>
<path d="M10.2,-800 L337.0,-800 L367.0,-775.0 L337.0,-750 L10.2,-750 L10.2,-800 Z" fill="#efc050" fill-opacity="0.8" stroke="#efc050" stroke-width="4" />
<text x="10.2" y="-810" font-size="26" fill="black" dy="0em">Cas8b8</text>
<path d="M367.40000000000003,-800 L521.4,-800 L551.4,-775.0 L521.4,-750 L367.40000000000003,-750 L367.40000000000003,-800 Z" fill="#efc050" fill-opacity="0.8" stroke="#efc050" stroke-width="4" />
<text x="367.40000000000003" y="-720" font-size="26" fill="black" dy="0em">Cas7</text>
<path d="M552.8000000000001,-800 L669.0,-800 L699.0,-775.0 L669.0,-750 L552.8000000000001,-750 L552.8000000000001,-800 Z" fill="#efc050" fill-opacity="0.8" stroke="#efc050" stroke-width="4" />
<text x="552.8000000000001" y="-810" font-size="26" fill="black" dy="0em">Cas5</text>
<path d="M698.4000000000001,-800 L1116.4,-800 L1146.4,-775.0 L1116.4,-750 L698.4000000000001,-750 L698.4000000000001,-800 Z" fill="#efc050" fill-opacity="0.8" stroke="#efc050" stroke-width="4" />
<text x="698.4000000000001" y="-720" font-size="26" fill="black" dy="0em">Cas3</text>
<path d="M1153.8,-800 L1261.0,-800 L1291.0,-775.0 L1261.0,-750 L1153.8,-750 L1153.8,-800 Z" fill="#dd1424" fill-opacity="0.8" stroke="#dd1424" stroke-width="4" />
<text x="1153.8" y="-810" font-size="26" fill="black" dy="0em">Cas6</text>
<path d="M1291.0,-800 L1460.6000000000001,-800 L1490.6000000000001,-775.0 L1460.6000000000001,-750 L1291.0,-750 L1291.0,-800 Z" fill="#5b5ea6" fill-opacity="0.8" stroke="#5b5ea6" stroke-width="4" />
<text x="1291.0" y="-720" font-size="26" fill="black" dy="0em">Cas1</text>
<path d="M1490.0,-800 L1518.0,-800 L1548.0,-775.0 L1518.0,-750 L1490.0,-750 L1490.0,-800 Z" fill="#5b5ea6" fill-opacity="0.8" stroke="#5b5ea6" stroke-width="4" />
<text x="1490.0" y="-810" font-size="26" fill="black" dy="0em">Cas2</text>
<path d="M1548.0,-800 L1633.0,-800 L1663.0,-775.0 L1633.0,-750 L1548.0,-750 L1548.0,-800 Z" fill="#5b5ea6" fill-opacity="0.8" stroke="#5b5ea6" stroke-width="4" />
<text x="1548.0" y="-720" font-size="26" fill="black" dy="0em">Cas4</text>
<path d="M1672.4,-800 L1677.0,-800 L1707.0,-775.0 L1677.0,-750 L1672.4,-750 L1672.4,-800 Z" fill="#d3c9c1" fill-opacity="0.8" stroke="#d3c9c1" stroke-width="4" />
<text x="1672.4" y="-810" font-size="20" fill="black" dy="0em">17</text>
<path d="M1701.6000000000001,-800 L1855.0,-800 L1855.0,-750 L1701.6000000000001,-750 L1701.6000000000001,-800 Z" fill="white" stroke="white" stroke-width="4" />
<path d="M1701.6000000000001,-800 L1708.9047619047622,-800 L1708.9047619047622,-750 L1701.6000000000001,-750 L1701.6000000000001,-800 Z" fill="black" />
<path d="M1708.9047619047622,-800 L1716.2095238095242,-800 L1716.2095238095242,-750 L1708.9047619047622,-750 L1708.9047619047622,-800 Z" fill="#f0f0f0" />
<path d="M1716.2095238095242,-800 L1723.5142857142862,-800 L1723.5142857142862,-750 L1716.2095238095242,-750 L1716.2095238095242,-800 Z" fill="black" />
<path d="M1723.5142857142862,-800 L1730.8190476190482,-800 L1730.8190476190482,-750 L1723.5142857142862,-750 L1723.5142857142862,-800 Z" fill="#f0f0f0" />
<path d="M1730.8190476190482,-800 L1738.1238095238102,-800 L1738.1238095238102,-750 L1730.8190476190482,-750 L1730.8190476190482,-800 Z" fill="black" />
<path d="M1738.1238095238102,-800 L1745.4285714285722,-800 L1745.4285714285722,-750 L1738.1238095238102,-750 L1738.1238095238102,-800 Z" fill="#f0f0f0" />
<path d="M1745.4285714285722,-800 L1752.7333333333343,-800 L1752.7333333333343,-750 L1745.4285714285722,-750 L1745.4285714285722,-800 Z" fill="black" />
<path d="M1752.7333333333343,-800 L1760.0380952380963,-800 L1760.0380952380963,-750 L1752.7333333333343,-750 L1752.7333333333343,-800 Z" fill="#f0f0f0" />
<path d="M1760.0380952380963,-800 L1767.3428571428583,-800 L1767.3428571428583,-750 L1760.0380952380963,-750 L1760.0380952380963,-800 Z" fill="black" />
<path d="M1767.3428571428583,-800 L1774.6476190476203,-800 L1774.6476190476203,-750 L1767.3428571428583,-750 L1767.3428571428583,-800 Z" fill="#f0f0f0" />
<path d="M1774.6476190476203,-800 L1781.9523809523823,-800 L1781.9523809523823,-750 L1774.6476190476203,-750 L1774.6476190476203,-800 Z" fill="black" />
<path d="M1781.9523809523823,-800 L1789.2571428571443,-800 L1789.2571428571443,-750 L1781.9523809523823,-750 L1781.9523809523823,-800 Z" fill="#f0f0f0" />
<path d="M1789.2571428571443,-800 L1796.5619047619064,-800 L1796.5619047619064,-750 L1789.2571428571443,-750 L1789.2571428571443,-800 Z" fill="black" />
<path d="M1796.5619047619064,-800 L1803.8666666666684,-800 L1803.8666666666684,-750 L1796.5619047619064,-750 L1796.5619047619064,-800 Z" fill="#f0f0f0" />
<path d="M1803.8666666666684,-800 L1811.1714285714304,-800 L1811.1714285714304,-750 L1803.8666666666684,-750 L1803.8666666666684,-800 Z" fill="black" />
<path d="M1811.1714285714304,-800 L1818.4761904761924,-800 L1818.4761904761924,-750 L1811.1714285714304,-750 L1811.1714285714304,-800 Z" fill="#f0f0f0" />
<path d="M1818.4761904761924,-800 L1825.7809523809544,-800 L1825.7809523809544,-750 L1818.4761904761924,-750 L1818.4761904761924,-800 Z" fill="black" />
<path d="M1825.7809523809544,-800 L1833.0857142857164,-800 L1833.0857142857164,-750 L1825.7809523809544,-750 L1825.7809523809544,-800 Z" fill="#f0f0f0" />
<path d="M1833.0857142857164,-800 L1840.3904761904785,-800 L1840.3904761904785,-750 L1833.0857142857164,-750 L1833.0857142857164,-800 Z" fill="black" />
<path d="M1840.3904761904785,-800 L1847.6952380952405,-800 L1847.6952380952405,-750 L1840.3904761904785,-750 L1840.3904761904785,-800 Z" fill="#f0f0f0" />
<path d="M1847.6952380952405,-800 L1855.0000000000025,-800 L1855.0000000000025,-750 L1847.6952380952405,-750 L1847.6952380952405,-800 Z" fill="black" />
<text x="1701.6000000000001" y="-810" font-size="26" fill="black" dy="0em">CRISPR</text>
<text x="16.0" y="-660" font-size="38" fill="black" dy="0em">II-C: c1050b21cc75640d51|ffff5e750e5a2bf97a|ffff5e750e5a2bf97a|1032701|NZ_LT670848.1:1706731-1732510(FWD)@1 (1435-11155)</text>
<path d="M874.8000000000001,-600 L913.6,-600 L913.6,-550 L874.8000000000001,-550 L844.8000000000001,-575.0 L874.8000000000001,-600 Z" fill="#5b5ea6" fill-opacity="0.8" stroke="#5b5ea6" stroke-width="4" />
<text x="844.8000000000001" y="-610" font-size="26" fill="black" dy="0em">Cas2</text>
<path d="M952.4000000000001,-600 L1101.6000000000001,-600 L1101.6000000000001,-550 L952.4000000000001,-550 L922.4000000000001,-575.0 L952.4000000000001,-600 Z" fill="#5b5ea6" fill-opacity="0.8" stroke="#5b5ea6" stroke-width="4" />
<text x="922.4000000000001" y="-520" font-size="26" fill="black" dy="0em">Cas1</text>
<path d="M1132.4,-600 L1954.2,-600 L1954.2,-550 L1132.4,-550 L1102.4,-575.0 L1132.4,-600 Z" fill="#efc050" fill-opacity="0.8" stroke="#efc050" stroke-width="4" />
<text x="1102.4" y="-610" font-size="26" fill="black" dy="0em">Cas9</text>
<path d="M10.2,-600 L823.0,-600 L823.0,-550 L10.2,-550 L10.2,-600 Z" fill="white" stroke="white" stroke-width="4" />
<path d="M10.2,-600 L17.79626168224299,-600 L17.79626168224299,-550 L10.2,-550 L10.2,-600 Z" fill="black" />
<path d="M17.79626168224299,-600 L25.392523364485978,-600 L25.392523364485978,-550 L17.79626168224299,-550 L17.79626168224299,-600 Z" fill="#f0f0f0" />
<path d="M25.392523364485978,-600 L32.98878504672897,-600 L32.98878504672897,-550 L25.392523364485978,-550 L25.392523364485978,-600 Z" fill="black" />
<path d="M32.98878504672897,-600 L40.58504672897196,-600 L40.58504672897196,-550 L32.98878504672897,-550 L32.98878504672897,-600 Z" fill="#f0f0f0" />
<path d="M40.58504672897196,-600 L48.18130841121495,-600 L48.18130841121495,-550 L40.58504672897196,-550 L40.58504672897196,-600 Z" fill="black" />
<path d="M48.18130841121495,-600 L55.77757009345794,-600 L55.77757009345794,-550 L48.18130841121495,-550 L48.18130841121495,-600 Z" fill="#f0f0f0" />
<path d="M55.77757009345794,-600 L63.37383177570093,-600 L63.37383177570093,-550 L55.77757009345794,-550 L55.77757009345794,-600 Z" fill="black" />
<path d="M63.37383177570093,-600 L70.97009345794392,-600 L70.97009345794392,-550 L63.37383177570093,-550 L63.37383177570093,-600 Z" fill="#f0f0f0" />
<path d="M70.97009345794392,-600 L78.56635514018691,-600 L78.56635514018691,-550 L70.97009345794392,-550 L70.97009345794392,-600 Z" fill="black" />
<path d="M78.56635514018691,-600 L86.16261682242991,-600 L86.16261682242991,-550 L78.56635514018691,-550 L78.56635514018691,-600 Z" fill="#f0f0f0" />
<path d="M86.16261682242991,-600 L93.75887850467291,-600 L93.75887850467291,-550 L86.16261682242991,-550 L86.16261682242991,-600 Z" fill="black" />
<path d="M93.75887850467291,-600 L101.3551401869159,-600 L101.3551401869159,-550 L93.75887850467291,-550 L93.75887850467291,-600 Z" fill="#f0f0f0" />
<path d="M101.3551401869159,-600 L108.9514018691589,-600 L108.9514018691589,-550 L101.3551401869159,-550 L101.3551401869159,-600 Z" fill="black" />
<path d="M108.9514018691589,-600 L116.5476635514019,-600 L116.5476635514019,-550 L108.9514018691589,-550 L108.9514018691589,-600 Z" fill="#f0f0f0" />
<path d="M116.5476635514019,-600 L124.1439252336449,-600 L124.1439252336449,-550 L116.5476635514019,-550 L116.5476635514019,-600 Z" fill="black" />
<path d="M124.1439252336449,-600 L131.74018691588788,-600 L131.74018691588788,-550 L124.1439252336449,-550 L124.1439252336449,-600 Z" fill="#f0f0f0" />
<path d="M131.74018691588788,-600 L139.33644859813086,-600 L139.33644859813086,-550 L131.74018691588788,-550 L131.74018691588788,-600 Z" fill="black" />
<path d="M139.33644859813086,-600 L146.93271028037384,-600 L146.93271028037384,-550 L139.33644859813086,-550 L139.33644859813086,-600 Z" fill="#f0f0f0" />
<path d="M146.93271028037384,-600 L154.52897196261682,-600 L154.52897196261682,-550 L146.93271028037384,-550 L146.93271028037384,-600 Z" fill="black" />
<path d="M154.52897196261682,-600 L162.1252336448598,-600 L162.1252336448598,-550 L154.52897196261682,-550 L154.52897196261682,-600 Z" fill="#f0f0f0" />
<path d="M162.1252336448598,-600 L169.7214953271028,-600 L169.7214953271028,-550 L162.1252336448598,-550 L162.1252336448598,-600 Z" fill="black" />
<path d="M169.7214953271028,-600 L177.31775700934577,-600 L177.31775700934577,-550 L169.7214953271028,-550 L169.7214953271028,-600 Z" fill="#f0f0f0" />
<path d="M177.31775700934577,-600 L184.91401869158875,-600 L184.91401869158875,-550 L177.31775700934577,-550 L177.31775700934577,-600 Z" fill="black" />
<path d="M184.91401869158875,-600 L192.51028037383173,-600 L192.51028037383173,-550 L184.91401869158875,-550 L184.91401869158875,-600 Z" fill="#f0f0f0" />
<path d="M192.51028037383173,-600 L200.10654205607472,-600 L200.10654205607472,-550 L192.51028037383173,-550 L192.51028037383173,-600 Z" fill="black" />
<path d="M200.10654205607472,-600 L207.7028037383177,-600 L207.7028037383177,-550 L200.10654205607472,-550 L200.10654205607472,-600 Z" fill="#f0f0f0" />
<path d="M207.7028037383177,-600 L215.29906542056068,-600 L215.29906542056068,-550 L207.7028037383177,-550 L207.7028037383177,-600 Z" fill="black" />
<path d="M215.29906542056068,-600 L222.89532710280366,-600 L222.89532710280366,-550 L215.29906542056068,-550 L215.29906542056068,-600 Z" fill="#f0f0f0" />
<path d="M222.89532710280366,-600 L230.49158878504664,-600 L230.49158878504664,-550 L222.89532710280366,-550 L222.89532710280366,-600 Z" fill="black" />
<path d="M230.49158878504664,-600 L238.08785046728963,-600 L238.08785046728963,-550 L230.49158878504664,-550 L230.49158878504664,-600 Z" fill="#f0f0f0" />
<path d="M238.08785046728963,-600 L245.6841121495326,-600 L245.6841121495326,-550 L238.08785046728963,-550 L238.08785046728963,-600 Z" fill="black" />
<path d="M245.6841121495326,-600 L253.2803738317756,-600 L253.2803738317756,-550 L245.6841121495326,-550 L245.6841121495326,-600 Z" fill="#f0f0f0" />
<path d="M253.2803738317756,-600 L260.8766355140186,-600 L260.8766355140186,-550 L253.2803738317756,-550 L253.2803738317756,-600 Z" fill="black" />
<path d="M260.8766355140186,-600 L268.47289719626156,-600 L268.47289719626156,-550 L260.8766355140186,-550 L260.8766355140186,-600 Z" fill="#f0f0f0" />
<path d="M268.47289719626156,-600 L276.06915887850454,-600 L276.06915887850454,-550 L268.47289719626156,-550 L268.47289719626156,-600 Z" fill="black" />
<path d="M276.06915887850454,-600 L283.6654205607475,-600 L283.6654205607475,-550 L276.06915887850454,-550 L276.06915887850454,-600 Z" fill="#f0f0f0" />
<path d="M283.6654205607475,-600 L291.2616822429905,-600 L291.2616822429905,-550 L283.6654205607475,-550 L283.6654205607475,-600 Z" fill="black" />
<path d="M291.2616822429905,-600 L298.8579439252335,-600 L298.8579439252335,-550 L291.2616822429905,-550 L291.2616822429905,-600 Z" fill="#f0f0f0" />
<path d="M298.8579439252335,-600 L306.45420560747647,-600 L306.45420560747647,-550 L298.8579439252335,-550 L298.8579439252335,-600 Z" fill="black" />
<path d="M306.45420560747647,-600 L314.05046728971945,-600 L314.05046728971945,-550 L306.45420560747647,-550 L306.45420560747647,-600 Z" fill="#f0f0f0" />
<path d="M314.05046728971945,-600 L321.64672897196243,-600 L321.64672897196243,-550 L314.05046728971945,-550 L314.05046728971945,-600 Z" fill="black" />
<path d="M321.64672897196243,-600 L329.2429906542054,-600 L329.2429906542054,-550 L321.64672897196243,-550 L321.64672897196243,-600 Z" fill="#f0f0f0" />
<path d="M329.2429906542054,-600 L336.8392523364484,-600 L336.8392523364484,-550 L329.2429906542054,-550 L329.2429906542054,-600 Z" fill="black" />
<path d="M336.8392523364484,-600 L344.4355140186914,-600 L344.4355140186914,-550 L336.8392523364484,-550 L336.8392523364484,-600 Z" fill="#f0f0f0" />
<path d="M344.4355140186914,-600 L352.03177570093436,-600 L352.03177570093436,-550 L344.4355140186914,-550 L344.4355140186914,-600 Z" fill="black" />
<path d="M352.03177570093436,-600 L359.62803738317734,-600 L359.62803738317734,-550 L352.03177570093436,-550 L352.03177570093436,-600 Z" fill="#f0f0f0" />
<path d="M359.62803738317734,-600 L367.2242990654203,-600 L367.2242990654203,-550 L359.62803738317734,-550 L359.62803738317734,-600 Z" fill="black" />
<path d="M367.2242990654203,-600 L374.8205607476633,-600 L374.8205607476633,-550 L367.2242990654203,-550 L367.2242990654203,-600 Z" fill="#f0f0f0" />
<path d="M374.8205607476633,-600 L382.4168224299063,-600 L382.4168224299063,-550 L374.8205607476633,-550 L374.8205607476633,-600 Z" fill="black" />
<path d="M382.4168224299063,-600 L390.0130841121493,-600 L390.0130841121493,-550 L382.4168224299063,-550 L382.4168224299063,-600 Z" fill="#f0f0f0" />
<path d="M390.0130841121493,-600 L397.60934579439225,-600 L397.60934579439225,-550 L390.0130841121493,-550 L390.0130841121493,-600 Z" fill="black" />
<path d="M397.60934579439225,-600 L405.20560747663524,-600 L405.20560747663524,-550 L397.60934579439225,-550 L397.60934579439225,-600 Z" fill="#f0f0f0" />
<path d="M405.20560747663524,-600 L412.8018691588782,-600 L412.8018691588782,-550 L405.20560747663524,-550 L405.20560747663524,-600 Z" fill="black" />
<path d="M412.8018691588782,-600 L420.3981308411212,-600 L420.3981308411212,-550 L412.8018691588782,-550 L412.8018691588782,-600 Z" fill="#f0f0f0" />
<path d="M420.3981308411212,-600 L427.9943925233642,-600 L427.9943925233642,-550 L420.3981308411212,-550 L420.3981308411212,-600 Z" fill="black" />
<path d="M427.9943925233642,-600 L435.59065420560717,-600 L435.59065420560717,-550 L427.9943925233642,-550 L427.9943925233642,-600 Z" fill="#f0f0f0" />
<path d="M435.59065420560717,-600 L443.18691588785015,-600 L443.18691588785015,-550 L435.59065420560717,-550 L435.59065420560717,-600 Z" fill="black" />
<path d="M443.18691588785015,-600 L450.78317757009313,-600 L450.78317757009313,-550 L443.18691588785015,-550 L443.18691588785015,-600 Z" fill="#f0f0f0" />
<path d="M450.78317757009313,-600 L458.3794392523361,-600 L458.3794392523361,-550 L450.78317757009313,-550 L450.78317757009313,-600 Z" fill="black" />
<path d="M458.3794392523361,-600 L465.9757009345791,-600 L465.9757009345791,-550 L458.3794392523361,-550 L458.3794392523361,-600 Z" fill="#f0f0f0" />
<path d="M465.9757009345791,-600 L473.5719626168221,-600 L473.5719626168221,-550 L465.9757009345791,-550 L465.9757009345791,-600 Z" fill="black" />
<path d="M473.5719626168221,-600 L481.16822429906506,-600 L481.16822429906506,-550 L473.5719626168221,-550 L473.5719626168221,-600 Z" fill="#f0f0f0" />
<path d="M481.16822429906506,-600 L488.76448598130804,-600 L488.76448598130804,-550 L481.16822429906506,-550 L481.16822429906506,-600 Z" fill="black" />
<path d="M488.76448598130804,-600 L496.360747663551,-600 L496.360747663551,-550 L488.76448598130804,-550 L488.76448598130804,-600 Z" fill="#f0f0f0" />
<path d="M496.360747663551,-600 L503.957009345794,-600 L503.957009345794,-550 L496.360747663551,-550 L496.360747663551,-600 Z" fill="black" />
<path d="M503.957009345794,-600 L511.553271028037,-600 L511.553271028037,-550 L503.957009345794,-550 L503.957009345794,-600 Z" fill="#f0f0f0" />
<path d="M511.553271028037,-600 L519.14953271028,-600 L519.14953271028,-550 L511.553271028037,-550 L511.553271028037,-600 Z" fill="black" />
<path d="M519.14953271028,-600 L526.7457943925231,-600 L526.7457943925231,-550 L519.14953271028,-550 L519.14953271028,-600 Z" fill="#f0f0f0" />
<path d="M526.7457943925231,-600 L534.3420560747661,-600 L534.3420560747661,-550 L526.7457943925231,-550 L526.7457943925231,-600 Z" fill="black" />
<path d="M534.3420560747661,-600 L541.9383177570091,-600 L541.9383177570091,-550 L534.3420560747661,-550 L534.3420560747661,-600 Z" fill="#f0f0f0" />
<path d="M541.9383177570091,-600 L549.5345794392522,-600 L549.5345794392522,-550 L541.9383177570091,-550 L541.9383177570091,-600 Z" fill="black" />
<path d="M549.5345794392522,-600 L557.1308411214952,-600 L557.1308411214952,-550 L549.5345794392522,-550 L549.5345794392522,-600 Z" fill="#f0f0f0" />
<path d="M557.1308411214952,-600 L564.7271028037383,-600 L564.7271028037383,-550 L557.1308411214952,-550 L557.1308411214952,-600 Z" fill="black" />
<path d="M564.7271028037383,-600 L572.3233644859813,-600 L572.3233644859813,-550 L564.7271028037383,-550 L564.7271028037383,-600 Z" fill="#f0f0f0" />
<path d="M572.3233644859813,-600 L579.9196261682243,-600 L579.9196261682243,-550 L572.3233644859813,-550 L572.3233644859813,-600 Z" fill="black" />
<path d="M579.9196261682243,-600 L587.5158878504674,-600 L587.5158878504674,-550 L579.9196261682243,-550 L579.9196261682243,-600 Z" fill="#f0f0f0" />
<path d="M587.5158878504674,-600 L595.1121495327104,-600 L595.1121495327104,-550 L587.5158878504674,-550 L587.5158878504674,-600 Z" fill="black" />
<path d="M595.1121495327104,-600 L602.7084112149535,-600 L602.7084112149535,-550 L595.1121495327104,-550 L595.1121495327104,-600 Z" fill="#f0f0f0" />
<path d="M602.7084112149535,-600 L610.3046728971965,-600 L610.3046728971965,-550 L602.7084112149535,-550 L602.7084112149535,-600 Z" fill="black" />
<path d="M610.3046728971965,-600 L617.9009345794395,-600 L617.9009345794395,-550 L610.3046728971965,-550 L610.3046728971965,-600 Z" fill="#f0f0f0" />
<path d="M617.9009345794395,-600 L625.4971962616826,-600 L625.4971962616826,-550 L617.9009345794395,-550 L617.9009345794395,-600 Z" fill="black" />
<path d="M625.4971962616826,-600 L633.0934579439256,-600 L633.0934579439256,-550 L625.4971962616826,-550 L625.4971962616826,-600 Z" fill="#f0f0f0" />
<path d="M633.0934579439256,-600 L640.6897196261687,-600 L640.6897196261687,-550 L633.0934579439256,-550 L633.0934579439256,-600 Z" fill="black" />
<path d="M640.6897196261687,-600 L648.2859813084117,-600 L648.2859813084117,-550 L640.6897196261687,-550 L640.6897196261687,-600 Z" fill="#f0f0f0" />
<path d="M648.2859813084117,-600 L655.8822429906547,-600 L655.8822429906547,-550 L648.2859813084117,-550 L648.2859813084117,-600 Z" fill="black" />
<path d="M655.8822429906547,-600 L663.4785046728978,-600 L663.4785046728978,-550 L655.8822429906547,-550 L655.8822429906547,-600 Z" fill="#f0f0f0" />
<path d="M663.4785046728978,-600 L671.0747663551408,-600 L671.0747663551408,-550 L663.4785046728978,-550 L663.4785046728978,-600 Z" fill="black" />
<path d="M671.0747663551408,-600 L678.6710280373838,-600 L678.6710280373838,-550 L671.0747663551408,-550 L671.0747663551408,-600 Z" fill="#f0f0f0" />
<path d="M678.6710280373838,-600 L686.2672897196269,-600 L686.2672897196269,-550 L678.6710280373838,-550 L678.6710280373838,-600 Z" fill="black" />
<path d="M686.2672897196269,-600 L693.8635514018699,-600 L693.8635514018699,-550 L686.2672897196269,-550 L686.2672897196269,-600 Z" fill="#f0f0f0" />
<path d="M693.8635514018699,-600 L701.459813084113,-600 L701.459813084113,-550 L693.8635514018699,-550 L693.8635514018699,-600 Z" fill="black" />
<path d="M701.459813084113,-600 L709.056074766356,-600 L709.056074766356,-550 L701.459813084113,-550 L701.459813084113,-600 Z" fill="#f0f0f0" />
<path d="M709.056074766356,-600 L716.652336448599,-600 L716.652336448599,-550 L709.056074766356,-550 L709.056074766356,-600 Z" fill="black" />
<path d="M716.652336448599,-600 L724.2485981308421,-600 L724.2485981308421,-550 L716.652336448599,-550 L716.652336448599,-600 Z" fill="#f0f0f0" />
<path d="M724.2485981308421,-600 L731.8448598130851,-600 L731.8448598130851,-550 L724.2485981308421,-550 L724.2485981308421,-600 Z" fill="black" />
<path d="M731.8448598130851,-600 L739.4411214953282,-600 L739.4411214953282,-550 L731.8448598130851,-550 L731.8448598130851,-600 Z" fill="#f0f0f0" />
<path d="M739.4411214953282,-600 L747.0373831775712,-600 L747.0373831775712,-550 L739.4411214953282,-550 L739.4411214953282,-600 Z" fill="black" />
<path d="M747.0373831775712,-600 L754.6336448598142,-600 L754.6336448598142,-550 L747.0373831775712,-550 L747.0373831775712,-600 Z" fill="#f0f0f0" />
<path d="M754.6336448598142,-600 L762.2299065420573,-600 L762.2299065420573,-550 L754.6336448598142,-550 L754.6336448598142,-600 Z" fill="black" />
<path d="M762.2299065420573,-600 L769.8261682243003,-600 L769.8261682243003,-550 L762.2299065420573,-550 L762.2299065420573,-600 Z" fill="#f0f0f0" />
<path d="M769.8261682243003,-600 L777.4224299065434,-600 L777.4224299065434,-550 L769.8261682243003,-550 L769.8261682243003,-600 Z" fill="black" />
<path d="M777.4224299065434,-600 L785.0186915887864,-600 L785.0186915887864,-550 L777.4224299065434,-550 L777.4224299065434,-600 Z" fill="#f0f0f0" />
<path d="M785.0186915887864,-600 L792.6149532710294,-600 L792.6149532710294,-550 L785.0186915887864,-550 L785.0186915887864,-600 Z" fill="black" />
<path d="M792.6149532710294,-600 L800.2112149532725,-600 L800.2112149532725,-550 L792.6149532710294,-550 L792.6149532710294,-600 Z" fill="#f0f0f0" />
<path d="M800.2112149532725,-600 L807.8074766355155,-600 L807.8074766355155,-550 L800.2112149532725,-550 L800.2112149532725,-600 Z" fill="black" />
<path d="M807.8074766355155,-600 L815.4037383177586,-600 L815.4037383177586,-550 L807.8074766355155,-550 L807.8074766355155,-600 Z" fill="#f0f0f0" />
<path d="M815.4037383177586,-600 L823.0000000000016,-600 L823.0000000000016,-550 L815.4037383177586,-550 L815.4037383177586,-600 Z" fill="black" />
<text x="10.2" y="-610" font-size="26" fill="black" dy="0em">CRISPR: II-C</text>
<text x="16.0" y="-460" font-size="38" fill="black" dy="0em">I-B: c1050b21cc75640d51|acddb38f14873225e8|acddb38f14873225e8|176978|NZ_CH672395.1:3567489-3593283(FWD)@2 (16017-25616)</text>
<path d="M10.2,-400 L349.0,-400 L379.0,-375.0 L349.0,-350 L10.2,-350 L10.2,-400 Z" fill="#efc050" fill-opacity="0.8" stroke="#efc050" stroke-width="4" />
<text x="10.2" y="-410" font-size="26" fill="black" dy="0em">Cas8b8</text>
<path d="M379.40000000000003,-400 L534.0,-400 L564.0,-375.0 L534.0,-350 L379.40000000000003,-350 L379.40000000000003,-400 Z" fill="#efc050" fill-opacity="0.8" stroke="#efc050" stroke-width="4" />
<text x="379.40000000000003" y="-320" font-size="26" fill="black" dy="0em">Cas7</text>
<path d="M564.8000000000001,-400 L681.0,-400 L711.0,-375.0 L681.0,-350 L564.8000000000001,-350 L564.8000000000001,-400 Z" fill="#efc050" fill-opacity="0.8" stroke="#efc050" stroke-width="4" />
<text x="564.8000000000001" y="-410" font-size="26" fill="black" dy="0em">Cas5</text>
<path d="M710.4000000000001,-400 L931.6,-400 L961.6,-375.0 L931.6,-350 L710.4000000000001,-350 L710.4000000000001,-400 Z" fill="#efc050" fill-opacity="0.8" stroke="#efc050" stroke-width="4" />
<text x="710.4000000000001" y="-320" font-size="26" fill="black" dy="0em">Cas3</text>
<path d="M972.0,-400 L1004.8,-400 L1034.8,-375.0 L1004.8,-350 L972.0,-350 L972.0,-400 Z" fill="#d3c9c1" fill-opacity="0.8" stroke="#d3c9c1" stroke-width="4" />
<text x="972.0" y="-410" font-size="20" fill="black" dy="0em">20</text>
<path d="M1037.2,-400 L1178.0,-400 L1208.0,-375.0 L1178.0,-350 L1037.2,-350 L1037.2,-400 Z" fill="#d3c9c1" fill-opacity="0.8" stroke="#d3c9c1" stroke-width="4" />
<text x="1037.2" y="-320" font-size="20" fill="black" dy="0em">21</text>
<path d="M1218.6000000000001,-400 L1385.2,-400 L1415.2,-375.0 L1385.2,-350 L1218.6000000000001,-350 L1218.6000000000001,-400 Z" fill="#efc050" fill-opacity="0.8" stroke="#efc050" stroke-width="4" />
<text x="1218.6000000000001" y="-410" font-size="26" fill="black" dy="0em">Cas3</text>
<path d="M1421.4,-400 L1528.0,-400 L1558.0,-375.0 L1528.0,-350 L1421.4,-350 L1421.4,-400 Z" fill="#dd1424" fill-opacity="0.8" stroke="#dd1424" stroke-width="4" />
<text x="1421.4" y="-320" font-size="26" fill="black" dy="0em">Cas6</text>
<path d="M1558.0,-400 L1727.6000000000001,-400 L1757.6000000000001,-375.0 L1727.6000000000001,-350 L1558.0,-350 L1558.0,-400 Z" fill="#5b5ea6" fill-opacity="0.8" stroke="#5b5ea6" stroke-width="4" />
<text x="1558.0" y="-410" font-size="26" fill="black" dy="0em">Cas1</text>
<path d="M1757.0,-400 L1785.0,-400 L1815.0,-375.0 L1785.0,-350 L1757.0,-350 L1757.0,-400 Z" fill="#5b5ea6" fill-opacity="0.8" stroke="#5b5ea6" stroke-width="4" />
<text x="1757.0" y="-320" font-size="26" fill="black" dy="0em">Cas2</text>
<path d="M1815.0,-400 L1900.0,-400 L1930.0,-375.0 L1900.0,-350 L1815.0,-350 L1815.0,-400 Z" fill="#5b5ea6" fill-opacity="0.8" stroke="#5b5ea6" stroke-width="4" />
<text x="1815.0" y="-410" font-size="26" fill="black" dy="0em">Cas4</text>
<text x="16.0" y="-260" font-size="38" fill="black" dy="0em">Ambiguous: c1050b21cc75640d51|acddb38f14873225e8|5420e16bd1f18e99a1|909641|NZ_FQXT01000004.1:323479-349264(REV)@1 (15988-21888)</text>
<path d="M10.2,-200 L210.4,-200 L240.4,-175.0 L210.4,-150 L10.2,-150 L10.2,-200 Z" fill="#efc050" fill-opacity="0.8" stroke="#efc050" stroke-width="4" />
<text x="10.2" y="-210" font-size="26" fill="black" dy="0em">Cas9</text>
<path d="M248.8,-200 L908.0,-200 L938.0,-175.0 L908.0,-150 L248.8,-150 L248.8,-200 Z" fill="#efc050" fill-opacity="0.8" stroke="#efc050" stroke-width="4" />
<text x="248.8" y="-120" font-size="26" fill="black" dy="0em">Cas9</text>
<path d="M937.4000000000001,-200 L1090.8,-200 L1120.8,-175.0 L1090.8,-150 L937.4000000000001,-150 L937.4000000000001,-200 Z" fill="#5b5ea6" fill-opacity="0.8" stroke="#5b5ea6" stroke-width="4" />
<text x="937.4000000000001" y="-210" font-size="26" fill="black" dy="0em">Cas1</text>
<path d="M1120.2,-200 L1160.2,-200 L1190.2,-175.0 L1160.2,-150 L1120.2,-150 L1120.2,-200 Z" fill="#5b5ea6" fill-opacity="0.8" stroke="#5b5ea6" stroke-width="4" />
<text x="1120.2" y="-120" font-size="26" fill="black" dy="0em">Cas2</text>
</svg>