<?xml version="1.0" encoding="UTF-8"?>
<svg xmlns="http://www.w3.org/2000/svg" xmlns:xlink="http://www.w3.org/1999/xlink"
     width="486" height="600" viewBox="0 -600 486 600">
<defs>
</defs>
<path d="M210,-20 L210,-520" stroke="grey" stroke-width="1" fill="none" />
<text x="160" y="-530" font-size="22" fill="grey" dy="0em">1000</text>
<path d="M410,-20 L410,-520" stroke="grey" stroke-width="1" fill="none" />
<text x="360" y="-530" font-size="22" fill="grey" dy="0em">2000</text>
<path d="M10.2,-400 L248.8,-400 L248.8,-350 L10.2,-350 L10.2,-400 Z" fill="white" stroke="white" stroke-width="4" />
<path d="M10.2,-400 L17.43030303030303,-400 L17.43030303030303,-350 L10.2,-350 L10.2,-400 Z" fill="black" />
<path d="M17.43030303030303,-400 L24.66060606060606,-400 L24.66060606060606,-350 L17.43030303030303,-350 L17.43030303030303,-400 Z" fill="#f0f0f0" />
<path d="M24.66060606060606,-400 L31.89090909090909,-400 L31.89090909090909,-350 L24.66060606060606,-350 L24.66060606060606,-400 Z" fill="black" />
<path d="M31.89090909090909,-400 L39.121212121212125,-400 L39.121212121212125,-350 L31.89090909090909,-350 L31.89090909090909,-400 Z" fill="#f0f0f0" />
<path d="M39.121212121212125,-400 L46.35151515151516,-400 L46.35151515151516,-350 L39.121212121212125,-350 L39.121212121212125,-400 Z" fill="black" />
<path d="M46.35151515151516,-400 L53.58181818181819,-400 L53.58181818181819,-350 L46.35151515151516,-350 L46.35151515151516,-400 Z" fill="#f0f0f0" />
<path d="M53.58181818181819,-400 L60.81212121212123,-400 L60.81212121212123,-350 L53.58181818181819,-350 L53.58181818181819,-400 Z" fill="black" />
<path d="M60.81212121212123,-400 L68.04242424242426,-400 L68.04242424242426,-350 L60.81212121212123,-350 L60.81212121212123,-400 Z" fill="#f0f0f0" />
<path d="M68.04242424242426,-400 L75.2727272727273,-400 L75.2727272727273,-350 L68.04242424242426,-350 L68.04242424242426,-400 Z" fill="black" />
<path d="M75.2727272727273,-400 L82.50303030303033,-400 L82.50303030303033,-350 L75.2727272727273,-350 L75.2727272727273,-400 Z" fill="#f0f0f0" />
<path d="M82.50303030303033,-400 L89.73333333333336,-400 L89.73333333333336,-350 L82.50303030303033,-350 L82.50303030303033,-400 Z" fill="black" />
<path d="M89.73333333333336,-400 L96.9636363636364,-400 L96.9636363636364,-350 L89.73333333333336,-350 L89.73333333333336,-400 Z" fill="#f0f0f0" />
<path d="M96.9636363636364,-400 L104.19393939393943,-400 L104.19393939393943,-350 L96.9636363636364,-350 L96.9636363636364,-400 Z" fill="black" />
<path d="M104.19393939393943,-400 L111.42424242424246,-400 L111.42424242424246,-350 L104.19393939393943,-350 L104.19393939393943,-400 Z" fill="#f0f0f0" />
<path d="M111.42424242424246,-400 L118.6545454545455,-400 L118.6545454545455,-350 L111.42424242424246,-350 L111.42424242424246,-400 Z" fill="black" />
<path d="M118.6545454545455,-400 L125.88484848484853,-400 L125.88484848484853,-350 L118.6545454545455,-350 L118.6545454545455,-400 Z" fill="#f0f0f0" />
<path d="M125.88484848484853,-400 L133.11515151515155,-400 L133.11515151515155,-350 L125.88484848484853,-350 L125.88484848484853,-400 Z" fill="black" />
<path d="M133.11515151515155,-400 L140.34545454545457,-400 L140.34545454545457,-350 L133.11515151515155,-350 L133.11515151515155,-400 Z" fill="#f0f0f0" />
<path d="M140.34545454545457,-400 L147.5757575757576,-400 L147.5757575757576,-350 L140.34545454545457,-350 L140.34545454545457,-400 Z" fill="black" />
<path d="M147.5757575757576,-400 L154.8060606060606,-400 L154.8060606060606,-350 L147.5757575757576,-350 L147.5757575757576,-400 Z" fill="#f0f0f0" />
<path d="M154.8060606060606,-400 L162.03636363636363,-400 L162.03636363636363,-350 L154.8060606060606,-350 L154.8060606060606,-400 Z" fill="black" />
<path d="M162.03636363636363,-400 L169.26666666666665,-400 L169.26666666666665,-350 L162.03636363636363,-350 L162.03636363636363,-400 Z" fill="#f0f0f0" />
<path d="M169.26666666666665,-400 L176.49696969696967,-400 L176.49696969696967,-350 L169.26666666666665,-350 L169.26666666666665,-400 Z" fill="black" />
<path d="M176.49696969696967,-400 L183.7272727272727,-400 L183.7272727272727,-350 L176.49696969696967,-350 L176.49696969696967,-400 Z" fill="#f0f0f0" />
<path d="M183.7272727272727,-400 L190.9575757575757,-400 L190.9575757575757,-350 L183.7272727272727,-350 L183.7272727272727,-400 Z" fill="black" />
<path d="M190.9575757575757,-400 L198.18787878787873,-400 L198.18787878787873,-350 L190.9575757575757,-350 L190.9575757575757,-400 Z" fill="#f0f0f0" />
<path d="M198.18787878787873,-400 L205.41818181818175,-400 L205.41818181818175,-350 L198.18787878787873,-350 L198.18787878787873,-400 Z" fill="black" />
<path d="M205.41818181818175,-400 L212.64848484848477,-400 L212.64848484848477,-350 L205.41818181818175,-350 L205.41818181818175,-400 Z" fill="#f0f0f0" />
<path d="M212.64848484848477,-400 L219.8787878787878,-400 L219.8787878787878,-350 L212.64848484848477,-350 L212.64848484848477,-400 Z" fill="black" />
<path d="M219.8787878787878,-400 L227.1090909090908,-400 L227.1090909090908,-350 L219.8787878787878,-350 L219.8787878787878,-400 Z" fill="#f0f0f0" />
<path d="M227.1090909090908,-400 L234.33939393939383,-400 L234.33939393939383,-350 L227.1090909090908,-350 L227.1090909090908,-400 Z" fill="black" />
<path d="M234.33939393939383,-400 L241.56969696969685,-400 L241.56969696969685,-350 L234.33939393939383,-350 L234.33939393939383,-400 Z" fill="#f0f0f0" />
<path d="M241.56969696969685,-400 L248.79999999999987,-400 L248.79999999999987,-350 L241.56969696969685,-350 L241.56969696969685,-400 Z" fill="black" />
<text x="10.2" y="-410" font-size="26" fill="black" dy="0em">CRISPR: I-D</text>
<text x="16.0" y="-460" font-size="38" fill="black" dy="0em">I-D: 2bce6e5989f64eecdf|e9c2745a502f4f9f7c|c5c3da34a03bcc11a5|8142801|NZ_JACJRE010000011.1:60846-86553(REV)_1 (24456-25649)</text>
<path d="M10.2,-200 L396.20000000000005,-200 L396.20000000000005,-150 L10.2,-150 L10.2,-200 Z" fill="white" stroke="white" stroke-width="4" />
<path d="M10.2,-200 L17.483018867924528,-200 L17.483018867924528,-150 L10.2,-150 L10.2,-200 Z" fill="black" />
<path d="M17.483018867924528,-200 L24.766037735849057,-200 L24.766037735849057,-150 L17.483018867924528,-150 L17.483018867924528,-200 Z" fill="#f0f0f0" />
<path d="M24.766037735849057,-200 L32.049056603773586,-200 L32.049056603773586,-150 L24.766037735849057,-150 L24.766037735849057,-200 Z" fill="black" />
<path d="M32.049056603773586,-200 L39.33207547169811,-200 L39.33207547169811,-150 L32.049056603773586,-150 L32.049056603773586,-200 Z" fill="#f0f0f0" />
<path d="M39.33207547169811,-200 L46.61509433962264,-200 L46.61509433962264,-150 L39.33207547169811,-150 L39.33207547169811,-200 Z" fill="black" />
<path d="M46.61509433962264,-200 L53.89811320754716,-200 L53.89811320754716,-150 L46.61509433962264,-150 L46.61509433962264,-200 Z" fill="#f0f0f0" />
<path d="M53.89811320754716,-200 L61.18113207547169,-200 L61.18113207547169,-150 L53.89811320754716,-150 L53.89811320754716,-200 Z" fill="black" />
<path d="M61.18113207547169,-200 L68.46415094339622,-200 L68.46415094339622,-150 L61.18113207547169,-150 L61.18113207547169,-200 Z" fill="#f0f0f0" />
<path d="M68.46415094339622,-200 L75.74716981132075,-200 L75.74716981132075,-150 L68.46415094339622,-150 L68.46415094339622,-200 Z" fill="black" />
<path d="M75.74716981132075,-200 L83.03018867924527,-200 L83.03018867924527,-150 L75.74716981132075,-150 L75.74716981132075,-200 Z" fill="#f0f0f0" />
<path d="M83.03018867924527,-200 L90.3132075471698,-200 L90.3132075471698,-150 L83.03018867924527,-150 L83.03018867924527,-200 Z" fill="black" />
<path d="M90.3132075471698,-200 L97.59622641509432,-200 L97.59622641509432,-150 L90.3132075471698,-150 L90.3132075471698,-200 Z" fill="#f0f0f0" />
<path d="M97.59622641509432,-200 L104.87924528301885,-200 L104.87924528301885,-150 L97.59622641509432,-150 L97.59622641509432,-200 Z" fill="black" />
<path d="M104.87924528301885,-200 L112.16226415094337,-200 L112.16226415094337,-150 L104.87924528301885,-150 L104.87924528301885,-200 Z" fill="#f0f0f0" />
<path d="M112.16226415094337,-200 L119.4452830188679,-200 L119.4452830188679,-150 L112.16226415094337,-150 L112.16226415094337,-200 Z" fill="black" />
<path d="M119.4452830188679,-200 L126.72830188679242,-200 L126.72830188679242,-150 L119.4452830188679,-150 L119.4452830188679,-200 Z" fill="#f0f0f0" />
<path d="M126.72830188679242,-200 L134.01132075471696,-200 L134.01132075471696,-150 L126.72830188679242,-150 L126.72830188679242,-200 Z" fill="black" />
<path d="M134.01132075471696,-200 L141.2943396226415,-200 L141.2943396226415,-150 L134.01132075471696,-150 L134.01132075471696,-200 Z" fill="#f0f0f0" />
<path d="M141.2943396226415,-200 L148.57735849056604,-200 L148.57735849056604,-150 L141.2943396226415,-150 L141.2943396226415,-200 Z" fill="black" />
<path d="M148.57735849056604,-200 L155.86037735849058,-200 L155.86037735849058,-150 L148.57735849056604,-150 L148.57735849056604,-200 Z" fill="#f0f0f0" />
<path d="M155.86037735849058,-200 L163.14339622641512,-200 L163.14339622641512,-150 L155.86037735849058,-150 L155.86037735849058,-200 Z" fill="black" />
<path d="M163.14339622641512,-200 L170.42641509433966,-200 L170.42641509433966,-150 L163.14339622641512,-150 L163.14339622641512,-200 Z" fill="#f0f0f0" />
<path d="M170.42641509433966,-200 L177.7094339622642,-200 L177.7094339622642,-150 L170.42641509433966,-150 L170.42641509433966,-200 Z" fill="black" />
<path d="M177.7094339622642,-200 L184.99245283018874,-200 L184.99245283018874,-150 L177.7094339622642,-150 L177.7094339622642,-200 Z" fill="#f0f0f0" />
<path d="M184.99245283018874,-200 L192.27547169811328,-200 L192.27547169811328,-150 L184.99245283018874,-150 L184.99245283018874,-200 Z" fill="black" />
<path d="M192.27547169811328,-200 L199.55849056603782,-200 L199.55849056603782,-150 L192.27547169811328,-150 L192.27547169811328,-200 Z" fill="#f0f0f0" />
<path d="M199.55849056603782,-200 L206.84150943396236,-200 L206.84150943396236,-150 L199.55849056603782,-150 L199.55849056603782,-200 Z" fill="black" />
<path d="M206.84150943396236,-200 L214.1245283018869,-200 L214.1245283018869,-150 L206.84150943396236,-150 L206.84150943396236,-200 Z" fill="#f0f0f0" />
<path d="M214.1245283018869,-200 L221.40754716981144,-200 L221.40754716981144,-150 L214.1245283018869,-150 L214.1245283018869,-200 Z" fill="black" />
<path d="M221.40754716981144,-200 L228.69056603773598,-200 L228.69056603773598,-150 L221.40754716981144,-150 L221.40754716981144,-200 Z" fill="#f0f0f0" />
<path d="M228.69056603773598,-200 L235.97358490566052,-200 L235.97358490566052,-150 L228.69056603773598,-150 L228.69056603773598,-200 Z" fill="black" />
<path d="M235.97358490566052,-200 L243.25660377358506,-200 L243.25660377358506,-150 L235.97358490566052,-150 L235.97358490566052,-200 Z" fill="#f0f0f0" />
<path d="M243.25660377358506,-200 L250.5396226415096,-200 L250.5396226415096,-150 L243.25660377358506,-150 L243.25660377358506,-200 Z" fill="black" />
<path d="M250.5396226415096,-200 L257.8226415094341,-200 L257.8226415094341,-150 L250.5396226415096,-150 L250.5396226415096,-200 Z" fill="#f0f0f0" />
<path d="M257.8226415094341,-200 L265.1056603773586,-200 L265.1056603773586,-150 L257.8226415094341,-150 L257.8226415094341,-200 Z" fill="black" />
<path d="M265.1056603773586,-200 L272.38867924528313,-200 L272.38867924528313,-150 L265.1056603773586,-150 L265.1056603773586,-200 Z" fill="#f0f0f0" />
<path d="M272.38867924528313,-200 L279.67169811320764,-200 L279.67169811320764,-150 L272.38867924528313,-150 L272.38867924528313,-200 Z" fill="black" />
<path d="M279.67169811320764,-200 L286.95471698113215,-200 L286.95471698113215,-150 L279.67169811320764,-150 L279.67169811320764,-200 Z" fill="#f0f0f0" />
<path d="M286.95471698113215,-200 L294.23773584905666,-200 L294.23773584905666,-150 L286.95471698113215,-150 L286.95471698113215,-200 Z" fill="black" />
<path d="M294.23773584905666,-200 L301.5207547169812,-200 L301.5207547169812,-150 L294.23773584905666,-150 L294.23773584905666,-200 Z" fill="#f0f0f0" />
<path d="M301.5207547169812,-200 L308.8037735849057,-200 L308.8037735849057,-150 L301.5207547169812,-150 L301.5207547169812,-200 Z" fill="black" />
<path d="M308.8037735849057,-200 L316.0867924528302,-200 L316.0867924528302,-150 L308.8037735849057,-150 L308.8037735849057,-200 Z" fill="#f0f0f0" />
<path d="M316.0867924528302,-200 L323.3698113207547,-200 L323.3698113207547,-150 L316.0867924528302,-150 L316.0867924528302,-200 Z" fill="black" />
<path d="M323.3698113207547,-200 L330.6528301886792,-200 L330.6528301886792,-150 L323.3698113207547,-150 L323.3698113207547,-200 Z" fill="#f0f0f0" />
<path d="M330.6528301886792,-200 L337.93584905660373,-200 L337.93584905660373,-150 L330.6528301886792,-150 L330.6528301886792,-200 Z" fill="black" />
<path d="M337.93584905660373,-200 L345.21886792452824,-200 L345.21886792452824,-150 L337.93584905660373,-150 L337.93584905660373,-200 Z" fill="#f0f0f0" />
<path d="M345.21886792452824,-200 L352.50188679245275,-200 L352.50188679245275,-150 L345.21886792452824,-150 L345.21886792452824,-200 Z" fill="black" />
<path d="M352.50188679245275,-200 L359.78490566037726,-200 L359.78490566037726,-150 L352.50188679245275,-150 L352.50188679245275,-200 Z" fill="#f0f0f0" />
<path d="M359.78490566037726,-200 L367.0679245283018,-200 L367.0679245283018,-150 L359.78490566037726,-150 L359.78490566037726,-200 Z" fill="black" />
<path d="M367.0679245283018,-200 L374.3509433962263,-200 L374.3509433962263,-150 L367.0679245283018,-150 L367.0679245283018,-200 Z" fill="#f0f0f0" />
<path d="M374.3509433962263,-200 L381.6339622641508,-200 L381.6339622641508,-150 L374.3509433962263,-150 L374.3509433962263,-200 Z" fill="black" />
<path d="M381.6339622641508,-200 L388.9169811320753,-200 L388.9169811320753,-150 L381.6339622641508,-150 L381.6339622641508,-200 Z" fill="#f0f0f0" />
<path d="M388.9169811320753,-200 L396.1999999999998,-200 L396.1999999999998,-150 L388.9169811320753,-150 L388.9169811320753,-200 Z" fill="black" />
<text x="10.2" y="-210" font-size="26" fill="black" dy="0em">CRISPR: I-D</text>
<text x="16.0" y="-260" font-size="38" fill="black" dy="0em">I-D: 2bce6e5989f64eecdf|e9c2745a502f4f9f7c|78c0392ce2952e610b|1232401|NZ_AP018207.1:2261042-2286749(FWD)_2 (16300-18230)</text>
</svg>