<?xml version="1.0" encoding="UTF-8"?>
<svg xmlns="http://www.w3.org/2000/svg" xmlns:xlink="http://www.w3.org/1999/xlink"
     width="2518" height="1000" viewBox="0 -1000 2518 1000">
<defs>
</defs>
<path d="M210,-20 L210,-920" stroke="grey" stroke-width="1" fill="none" />
<text x="160" y="-930" font-size="22" fill="grey" dy="0em">1000</text>
<path d="M410,-20 L410,-920" stroke="grey" stroke-width="1" fill="none" />
<text x="360" y="-930" font-size="22" fill="grey" dy="0em">2000</text>
<path d="M610,-20 L610,-920" stroke="grey" stroke-width="1" fill="none" />
<text x="560" y="-930" font-size="22" fill="grey" dy="0em">3000</text>
<path d="M810,-20 L810,-920" stroke="grey" stroke-width="1" fill="none" />
<text x="760" y="-930" font-size="22" fill="grey" dy="0em">4000</text>
<path d="M1010,-20 L1010,-920" stroke="grey" stroke-width="1" fill="none" />
<text x="960" y="-930" font-size="22" fill="grey" dy="0em">5000</text>
<path d="M1210,-20 L1210,-920" stroke="grey" stroke-width="1" fill="none" />
<text x="1160" y="-930" font-size="22" fill="grey" dy="0em">6000</text>
<path d="M1410,-20 L1410,-920" stroke="grey" stroke-width="1" fill="none" />
<text x="1360" y="-930" font-size="22" fill="grey" dy="0em">7000</text>
<path d="M1610,-20 L1610,-920" stroke="grey" stroke-width="1" fill="none" />
<text x="1560" y="-930" font-size="22" fill="grey" dy="0em">8000</text>
<path d="M1810,-20 L1810,-920" stroke="grey" stroke-width="1" fill="none" />
<text x="1760" y="-930" font-size="22" fill="grey" dy="0em">9000</text>
<path d="M2010,-20 L2010,-920" stroke="grey" stroke-width="1" fill="none" />
<text x="1960" y="-930" font-size="22" fill="grey" dy="0em">10000</text>
<path d="M2210,-20 L2210,-920" stroke="grey" stroke-width="1" fill="none" />
<text x="2160" y="-930" font-size="22" fill="grey" dy="0em">11000</text>
<path d="M2410,-20 L2410,-920" stroke="grey" stroke-width="1" fill="none" />
<text x="2360" y="-930" font-size="22" fill="grey" dy="0em">12000</text>
<text x="16.0" y="-860" font-size="38" fill="black" dy="0em">I-B: 6c3b2ade31d3833745|7f5fe71ad1596c0e1a|7f5fe71ad1596c0e1a|632598|NZ_AQWN01000007.1:155811-181365(FWD)@1 (13361-25452)</text>
<path d="M10.2,-800 L134.8,-800 L164.8,-775.0 L134.8,-750 L10.2,-750 L10.2,-800 Z" fill="#dd1424" fill-opacity="0.8" stroke="#dd1424" stroke-width="4" />
<text x="10.2" y="-810" font-size="26" fill="black" dy="0em">Cas6</text>
<path d="M912.4000000000001,-800 L1076.0,-800 L1076.0,-750 L912.4000000000001,-750 L882.4000000000001,-775.0 L912.4000000000001,-800 Z" fill="#d3c9c1" fill-opacity="0.8" stroke="#d3c9c1" stroke-width="4" />
<text x="882.4000000000001" y="-720" font-size="20" fill="black" dy="0em">17</text>
<path d="M1300.0,-800 L1625.0,-800 L1655.0,-775.0 L1625.0,-750 L1300.0,-750 L1300.0,-800 Z" fill="#efc050" fill-opacity="0.8" stroke="#efc050" stroke-width="4" />
<text x="1300.0" y="-810" font-size="26" fill="black" dy="0em">Cas8b1</text>
<path d="M1657.8000000000002,-800 L1808.2,-800 L1838.2,-775.0 L1808.2,-750 L1657.8000000000002,-750 L1657.8000000000002,-800 Z" fill="#efc050" fill-opacity="0.8" stroke="#efc050" stroke-width="4" />
<text x="1657.8000000000002" y="-720" font-size="26" fill="black" dy="0em">Cas7</text>
<path d="M1841.4,-800 L1952.2,-800 L1982.2,-775.0 L1952.2,-750 L1841.4,-750 L1841.4,-800 Z" fill="#efc050" fill-opacity="0.8" stroke="#efc050" stroke-width="4" />
<text x="1841.4" y="-810" font-size="26" fill="black" dy="0em">Cas5</text>
<path d="M1981.6000000000001,-800 L2398.4,-800 L2428.4,-775.0 L2398.4,-750 L1981.6000000000001,-750 L1981.6000000000001,-800 Z" fill="#efc050" fill-opacity="0.8" stroke="#efc050" stroke-width="4" />
<text x="1981.6000000000001" y="-720" font-size="26" fill="black" dy="0em">Cas3</text>
<path d="M210.4,-800 L801.0,-800 L801.0,-750 L210.4,-750 L210.4,-800 Z" fill="white" stroke="white" stroke-width="4" />
<path d="M210.4,-800 L217.03595505617977,-800 L217.03595505617977,-750 L210.4,-750 L210.4,-800 Z" fill="black" />
<path d="M217.03595505617977,-800 L223.67191011235954,-800 L223.67191011235954,-750 L217.03595505617977,-750 L217.03595505617977,-800 Z" fill="#f0f0f0" />
<path d="M223.67191011235954,-800 L230.3078651685393,-800 L230.3078651685393,-750 L223.67191011235954,-750 L223.67191011235954,-800 Z" fill="black" />
<path d="M230.3078651685393,-800 L236.94382022471908,-800 L236.94382022471908,-750 L230.3078651685393,-750 L230.3078651685393,-800 Z" fill="#f0f0f0" />
<path d="M236.94382022471908,-800 L243.57977528089884,-800 L243.57977528089884,-750 L236.94382022471908,-750 L236.94382022471908,-800 Z" fill="black" />
<path d="M243.57977528089884,-800 L250.2157303370786,-800 L250.2157303370786,-750 L243.57977528089884,-750 L243.57977528089884,-800 Z" fill="#f0f0f0" />
<path d="M250.2157303370786,-800 L256.8516853932584,-800 L256.8516853932584,-750 L250.2157303370786,-750 L250.2157303370786,-800 Z" fill="black" />
<path d="M256.8516853932584,-800 L263.4876404494382,-800 L263.4876404494382,-750 L256.8516853932584,-750 L256.8516853932584,-800 Z" fill="#f0f0f0" />
<path d="M263.4876404494382,-800 L270.12359550561797,-800 L270.12359550561797,-750 L263.4876404494382,-750 L263.4876404494382,-800 Z" fill="black" />
<path d="M270.12359550561797,-800 L276.75955056179777,-800 L276.75955056179777,-750 L270.12359550561797,-750 L270.12359550561797,-800 Z" fill="#f0f0f0" />
<path d="M276.75955056179777,-800 L283.39550561797756,-800 L283.39550561797756,-750 L276.75955056179777,-750 L276.75955056179777,-800 Z" fill="black" />
<path d="M283.39550561797756,-800 L290.03146067415736,-800 L290.03146067415736,-750 L283.39550561797756,-750 L283.39550561797756,-800 Z" fill="#f0f0f0" />
<path d="M290.03146067415736,-800 L296.66741573033715,-800 L296.66741573033715,-750 L290.03146067415736,-750 L290.03146067415736,-800 Z" fill="black" />
<path d="M296.66741573033715,-800 L303.30337078651695,-800 L303.30337078651695,-750 L296.66741573033715,-750 L296.66741573033715,-800 Z" fill="#f0f0f0" />
<path d="M303.30337078651695,-800 L309.93932584269675,-800 L309.93932584269675,-750 L303.30337078651695,-750 L303.30337078651695,-800 Z" fill="black" />
<path d="M309.93932584269675,-800 L316.57528089887654,-800 L316.57528089887654,-750 L309.93932584269675,-750 L309.93932584269675,-800 Z" fill="#f0f0f0" />
<path d="M316.57528089887654,-800 L323.21123595505634,-800 L323.21123595505634,-750 L316.57528089887654,-750 L316.57528089887654,-800 Z" fill="black" />
<path d="M323.21123595505634,-800 L329.84719101123613,-800 L329.84719101123613,-750 L323.21123595505634,-750 L323.21123595505634,-800 Z" fill="#f0f0f0" />
<path d="M329.84719101123613,-800 L336.48314606741593,-800 L336.48314606741593,-750 L329.84719101123613,-750 L329.84719101123613,-800 Z" fill="black" />
<path d="M336.48314606741593,-800 L343.1191011235957,-800 L343.1191011235957,-750 L336.48314606741593,-750 L336.48314606741593,-800 Z" fill="#f0f0f0" />
<path d="M343.1191011235957,-800 L349.7550561797755,-800 L349.7550561797755,-750 L343.1191011235957,-750 L343.1191011235957,-800 Z" fill="black" />
<path d="M349.7550561797755,-800 L356.3910112359553,-800 L356.3910112359553,-750 L349.7550561797755,-750 L349.7550561797755,-800 Z" fill="#f0f0f0" />
<path d="M356.3910112359553,-800 L363.0269662921351,-800 L363.0269662921351,-750 L356.3910112359553,-750 L356.3910112359553,-800 Z" fill="black" />
<path d="M363.0269662921351,-800 L369.6629213483149,-800 L369.6629213483149,-750 L363.0269662921351,-750 L363.0269662921351,-800 Z" fill="#f0f0f0" />
<path d="M369.6629213483149,-800 L376.2988764044947,-800 L376.2988764044947,-750 L369.6629213483149,-750 L369.6629213483149,-800 Z" fill="black" />
<path d="M376.2988764044947,-800 L382.9348314606745,-800 L382.9348314606745,-750 L376.2988764044947,-750 L376.2988764044947,-800 Z" fill="#f0f0f0" />
<path d="M382.9348314606745,-800 L389.5707865168543,-800 L389.5707865168543,-750 L382.9348314606745,-750 L382.9348314606745,-800 Z" fill="black" />
<path d="M389.5707865168543,-800 L396.2067415730341,-800 L396.2067415730341,-750 L389.5707865168543,-750 L389.5707865168543,-800 Z" fill="#f0f0f0" />
<path d="M396.2067415730341,-800 L402.8426966292139,-800 L402.8426966292139,-750 L396.2067415730341,-750 L396.2067415730341,-800 Z" fill="black" />
<path d="M402.8426966292139,-800 L409.4786516853937,-800 L409.4786516853937,-750 L402.8426966292139,-750 L402.8426966292139,-800 Z" fill="#f0f0f0" />
<path d="M409.4786516853937,-800 L416.1146067415735,-800 L416.1146067415735,-750 L409.4786516853937,-750 L409.4786516853937,-800 Z" fill="black" />
<path d="M416.1146067415735,-800 L422.7505617977533,-800 L422.7505617977533,-750 L416.1146067415735,-750 L416.1146067415735,-800 Z" fill="#f0f0f0" />
<path d="M422.7505617977533,-800 L429.3865168539331,-800 L429.3865168539331,-750 L422.7505617977533,-750 L422.7505617977533,-800 Z" fill="black" />
<path d="M429.3865168539331,-800 L436.02247191011287,-800 L436.02247191011287,-750 L429.3865168539331,-750 L429.3865168539331,-800 Z" fill="#f0f0f0" />
<path d="M436.02247191011287,-800 L442.65842696629267,-800 L442.65842696629267,-750 L436.02247191011287,-750 L436.02247191011287,-800 Z" fill="black" />
<path d="M442.65842696629267,-800 L449.29438202247246,-800 L449.29438202247246,-750 L442.65842696629267,-750 L442.65842696629267,-800 Z" fill="#f0f0f0" />
<path d="M449.29438202247246,-800 L455.93033707865226,-800 L455.93033707865226,-750 L449.29438202247246,-750 L449.29438202247246,-800 Z" fill="black" />
<path d="M455.93033707865226,-800 L462.56629213483205,-800 L462.56629213483205,-750 L455.93033707865226,-750 L455.93033707865226,-800 Z" fill="#f0f0f0" />
<path d="M462.56629213483205,-800 L469.20224719101185,-800 L469.20224719101185,-750 L462.56629213483205,-750 L462.56629213483205,-800 Z" fill="black" />
<path d="M469.20224719101185,-800 L475.83820224719165,-800 L475.83820224719165,-750 L469.20224719101185,-750 L469.20224719101185,-800 Z" fill="#f0f0f0" />
<path d="M475.83820224719165,-800 L482.47415730337144,-800 L482.47415730337144,-750 L475.83820224719165,-750 L475.83820224719165,-800 Z" fill="black" />
<path d="M482.47415730337144,-800 L489.11011235955124,-800 L489.11011235955124,-750 L482.47415730337144,-750 L482.47415730337144,-800 Z" fill="#f0f0f0" />
<path d="M489.11011235955124,-800 L495.74606741573103,-800 L495.74606741573103,-750 L489.11011235955124,-750 L489.11011235955124,-800 Z" fill="black" />
<path d="M495.74606741573103,-800 L502.38202247191083,-800 L502.38202247191083,-750 L495.74606741573103,-750 L495.74606741573103,-800 Z" fill="#f0f0f0" />
<path d="M502.38202247191083,-800 L509.0179775280906,-800 L509.0179775280906,-750 L502.38202247191083,-750 L502.38202247191083,-800 Z" fill="black" />
<path d="M509.0179775280906,-800 L515.6539325842704,-800 L515.6539325842704,-750 L509.0179775280906,-750 L509.0179775280906,-800 Z" fill="#f0f0f0" />
<path d="M515.6539325842704,-800 L522.2898876404502,-800 L522.2898876404502,-750 L515.6539325842704,-750 L515.6539325842704,-800 Z" fill="black" />
<path d="M522.2898876404502,-800 L528.92584269663,-800 L528.92584269663,-750 L522.2898876404502,-750 L522.2898876404502,-800 Z" fill="#f0f0f0" />
<path d="M528.92584269663,-800 L535.5617977528098,-800 L535.5617977528098,-750 L528.92584269663,-750 L528.92584269663,-800 Z" fill="black" />
<path d="M535.5617977528098,-800 L542.1977528089895,-800 L542.1977528089895,-750 L535.5617977528098,-750 L535.5617977528098,-800 Z" fill="#f0f0f0" />
<path d="M542.1977528089895,-800 L548.8337078651693,-800 L548.8337078651693,-750 L542.1977528089895,-750 L542.1977528089895,-800 Z" fill="black" />
<path d="M548.8337078651693,-800 L555.4696629213491,-800 L555.4696629213491,-750 L548.8337078651693,-750 L548.8337078651693,-800 Z" fill="#f0f0f0" />
<path d="M555.4696629213491,-800 L562.1056179775289,-800 L562.1056179775289,-750 L555.4696629213491,-750 L555.4696629213491,-800 Z" fill="black" />
<path d="M562.1056179775289,-800 L568.7415730337087,-800 L568.7415730337087,-750 L562.1056179775289,-750 L562.1056179775289,-800 Z" fill="#f0f0f0" />
<path d="M568.7415730337087,-800 L575.3775280898885,-800 L575.3775280898885,-750 L568.7415730337087,-750 L568.7415730337087,-800 Z" fill="black" />
<path d="M575.3775280898885,-800 L582.0134831460683,-800 L582.0134831460683,-750 L575.3775280898885,-750 L575.3775280898885,-800 Z" fill="#f0f0f0" />
<path d="M582.0134831460683,-800 L588.6494382022481,-800 L588.6494382022481,-750 L582.0134831460683,-750 L582.0134831460683,-800 Z" fill="black" />
<path d="M588.6494382022481,-800 L595.2853932584279,-800 L595.2853932584279,-750 L588.6494382022481,-750 L588.6494382022481,-800 Z" fill="#f0f0f0" />
<path d="M595.2853932584279,-800 L601.9213483146077,-800 L601.9213483146077,-750 L595.2853932584279,-750 L595.2853932584279,-800 Z" fill="black" />
<path d="M601.9213483146077,-800 L608.5573033707875,-800 L608.5573033707875,-750 L601.9213483146077,-750 L601.9213483146077,-800 Z" fill="#f0f0f0" />
<path d="M608.5573033707875,-800 L615.1932584269673,-800 L615.1932584269673,-750 L608.5573033707875,-750 L608.5573033707875,-800 Z" fill="black" />
<path d="M615.1932584269673,-800 L621.8292134831471,-800 L621.8292134831471,-750 L615.1932584269673,-750 L615.1932584269673,-800 Z" fill="#f0f0f0" />
<path d="M621.8292134831471,-800 L628.4651685393269,-800 L628.4651685393269,-750 L621.8292134831471,-750 L621.8292134831471,-800 Z" fill="black" />
<path d="M628.4651685393269,-800 L635.1011235955067,-800 L635.1011235955067,-750 L628.4651685393269,-750 L628.4651685393269,-800 Z" fill="#f0f0f0" />
<path d="M635.1011235955067,-800 L641.7370786516865,-800 L641.7370786516865,-750 L635.1011235955067,-750 L635.1011235955067,-800 Z" fill="black" />
<path d="M641.7370786516865,-800 L648.3730337078663,-800 L648.3730337078663,-750 L641.7370786516865,-750 L641.7370786516865,-800 Z" fill="#f0f0f0" />
<path d="M648.3730337078663,-800 L655.0089887640461,-800 L655.0089887640461,-750 L648.3730337078663,-750 L648.3730337078663,-800 Z" fill="black" />
<path d="M655.0089887640461,-800 L661.6449438202259,-800 L661.6449438202259,-750 L655.0089887640461,-750 L655.0089887640461,-800 Z" fill="#f0f0f0" />
<path d="M661.6449438202259,-800 L668.2808988764057,-800 L668.2808988764057,-750 L661.6449438202259,-750 L661.6449438202259,-800 Z" fill="black" />
<path d="M668.2808988764057,-800 L674.9168539325855,-800 L674.9168539325855,-750 L668.2808988764057,-750 L668.2808988764057,-800 Z" fill="#f0f0f0" />
<path d="M674.9168539325855,-800 L681.5528089887653,-800 L681.5528089887653,-750 L674.9168539325855,-750 L674.9168539325855,-800 Z" fill="black" />
<path d="M681.5528089887653,-800 L688.1887640449451,-800 L688.1887640449451,-750 L681.5528089887653,-750 L681.5528089887653,-800 Z" fill="#f0f0f0" />
<path d="M688.1887640449451,-800 L694.8247191011249,-800 L694.8247191011249,-750 L688.1887640449451,-750 L688.1887640449451,-800 Z" fill="black" />
<path d="M694.8247191011249,-800 L701.4606741573047,-800 L701.4606741573047,-750 L694.8247191011249,-750 L694.8247191011249,-800 Z" fill="#f0f0f0" />
<path d="M701.4606741573047,-800 L708.0966292134844,-800 L708.0966292134844,-750 L701.4606741573047,-750 L701.4606741573047,-800 Z" fill="black" />
<path d="M708.0966292134844,-800 L714.7325842696642,-800 L714.7325842696642,-750 L708.0966292134844,-750 L708.0966292134844,-800 Z" fill="#f0f0f0" />
<path d="M714.7325842696642,-800 L721.368539325844,-800 L721.368539325844,-750 L714.7325842696642,-750 L714.7325842696642,-800 Z" fill="black" />
<path d="M721.368539325844,-800 L728.0044943820238,-800 L728.0044943820238,-750 L721.368539325844,-750 L721.368539325844,-800 Z" fill="#f0f0f0" />
<path d="M728.0044943820238,-800 L734.6404494382036,-800 L734.6404494382036,-750 L728.0044943820238,-750 L728.0044943820238,-800 Z" fill="black" />
<path d="M734.6404494382036,-800 L741.2764044943834,-800 L741.2764044943834,-750 L734.6404494382036,-750 L734.6404494382036,-800 Z" fill="#f0f0f0" />
<path d="M741.2764044943834,-800 L747.9123595505632,-800 L747.9123595505632,-750 L741.2764044943834,-750 L741.2764044943834,-800 Z" fill="black" />
<path d="M747.9123595505632,-800 L754.548314606743,-800 L754.548314606743,-750 L747.9123595505632,-750 L747.9123595505632,-800 Z" fill="#f0f0f0" />
<path d="M754.548314606743,-800 L761.1842696629228,-800 L761.1842696629228,-750 L754.548314606743,-750 L754.548314606743,-800 Z" fill="black" />
<path d="M761.1842696629228,-800 L767.8202247191026,-800 L767.8202247191026,-750 L761.1842696629228,-750 L761.1842696629228,-800 Z" fill="#f0f0f0" />
<path d="M767.8202247191026,-800 L774.4561797752824,-800 L774.4561797752824,-750 L767.8202247191026,-750 L767.8202247191026,-800 Z" fill="black" />
<path d="M774.4561797752824,-800 L781.0921348314622,-800 L781.0921348314622,-750 L774.4561797752824,-750 L774.4561797752824,-800 Z" fill="#f0f0f0" />
<path d="M781.0921348314622,-800 L787.728089887642,-800 L787.728089887642,-750 L781.0921348314622,-750 L781.0921348314622,-800 Z" fill="black" />
<path d="M787.728089887642,-800 L794.3640449438218,-800 L794.3640449438218,-750 L787.728089887642,-750 L787.728089887642,-800 Z" fill="#f0f0f0" />
<path d="M794.3640449438218,-800 L801.0000000000016,-800 L801.0000000000016,-750 L794.3640449438218,-750 L794.3640449438218,-800 Z" fill="black" />
<text x="210.4" y="-810" font-size="26" fill="black" dy="0em">CRISPR</text>
<path d="M10.2,-600 L1526.6000000000001,-600 L1526.6000000000001,-550 L10.2,-550 L10.2,-600 Z" fill="white" stroke="white" stroke-width="4" />
<path d="M10.2,-600 L17.4555023923445,-600 L17.4555023923445,-550 L10.2,-550 L10.2,-600 Z" fill="black" />
<path d="M17.4555023923445,-600 L24.711004784688996,-600 L24.711004784688996,-550 L17.4555023923445,-550 L17.4555023923445,-600 Z" fill="#f0f0f0" />
<path d="M24.711004784688996,-600 L31.966507177033492,-600 L31.966507177033492,-550 L24.711004784688996,-550 L24.711004784688996,-600 Z" fill="black" />
<path d="M31.966507177033492,-600 L39.22200956937799,-600 L39.22200956937799,-550 L31.966507177033492,-550 L31.966507177033492,-600 Z" fill="#f0f0f0" />
<path d="M39.22200956937799,-600 L46.477511961722485,-600 L46.477511961722485,-550 L39.22200956937799,-550 L39.22200956937799,-600 Z" fill="black" />
<path d="M46.477511961722485,-600 L53.73301435406698,-600 L53.73301435406698,-550 L46.477511961722485,-550 L46.477511961722485,-600 Z" fill="#f0f0f0" />
<path d="M53.73301435406698,-600 L60.98851674641148,-600 L60.98851674641148,-550 L53.73301435406698,-550 L53.73301435406698,-600 Z" fill="black" />
<path d="M60.98851674641148,-600 L68.24401913875597,-600 L68.24401913875597,-550 L60.98851674641148,-550 L60.98851674641148,-600 Z" fill="#f0f0f0" />
<path d="M68.24401913875597,-600 L75.49952153110047,-600 L75.49952153110047,-550 L68.24401913875597,-550 L68.24401913875597,-600 Z" fill="black" />
<path d="M75.49952153110047,-600 L82.75502392344497,-600 L82.75502392344497,-550 L75.49952153110047,-550 L75.49952153110047,-600 Z" fill="#f0f0f0" />
<path d="M82.75502392344497,-600 L90.01052631578946,-600 L90.01052631578946,-550 L82.75502392344497,-550 L82.75502392344497,-600 Z" fill="black" />
<path d="M90.01052631578946,-600 L97.26602870813396,-600 L97.26602870813396,-550 L90.01052631578946,-550 L90.01052631578946,-600 Z" fill="#f0f0f0" />
<path d="M97.26602870813396,-600 L104.52153110047846,-600 L104.52153110047846,-550 L97.26602870813396,-550 L97.26602870813396,-600 Z" fill="black" />
<path d="M104.52153110047846,-600 L111.77703349282295,-600 L111.77703349282295,-550 L104.52153110047846,-550 L104.52153110047846,-600 Z" fill="#f0f0f0" />
<path d="M111.77703349282295,-600 L119.03253588516745,-600 L119.03253588516745,-550 L111.77703349282295,-550 L111.77703349282295,-600 Z" fill="black" />
<path d="M119.03253588516745,-600 L126.28803827751194,-600 L126.28803827751194,-550 L119.03253588516745,-550 L119.03253588516745,-600 Z" fill="#f0f0f0" />
<path d="M126.28803827751194,-600 L133.54354066985644,-600 L133.54354066985644,-550 L126.28803827751194,-550 L126.28803827751194,-600 Z" fill="black" />
<path d="M133.54354066985644,-600 L140.79904306220095,-600 L140.79904306220095,-550 L133.54354066985644,-550 L133.54354066985644,-600 Z" fill="#f0f0f0" />
<path d="M140.79904306220095,-600 L148.05454545454546,-600 L148.05454545454546,-550 L140.79904306220095,-550 L140.79904306220095,-600 Z" fill="black" />
<path d="M148.05454545454546,-600 L155.31004784688997,-600 L155.31004784688997,-550 L148.05454545454546,-550 L148.05454545454546,-600 Z" fill="#f0f0f0" />
<path d="M155.31004784688997,-600 L162.56555023923448,-600 L162.56555023923448,-550 L155.31004784688997,-550 L155.31004784688997,-600 Z" fill="black" />
<path d="M162.56555023923448,-600 L169.821052631579,-600 L169.821052631579,-550 L162.56555023923448,-550 L162.56555023923448,-600 Z" fill="#f0f0f0" />
<path d="M169.821052631579,-600 L177.0765550239235,-600 L177.0765550239235,-550 L169.821052631579,-550 L169.821052631579,-600 Z" fill="black" />
<path d="M177.0765550239235,-600 L184.33205741626801,-600 L184.33205741626801,-550 L177.0765550239235,-550 L177.0765550239235,-600 Z" fill="#f0f0f0" />
<path d="M184.33205741626801,-600 L191.58755980861253,-600 L191.58755980861253,-550 L184.33205741626801,-550 L184.33205741626801,-600 Z" fill="black" />
<path d="M191.58755980861253,-600 L198.84306220095704,-600 L198.84306220095704,-550 L191.58755980861253,-550 L191.58755980861253,-600 Z" fill="#f0f0f0" />
<path d="M198.84306220095704,-600 L206.09856459330155,-600 L206.09856459330155,-550 L198.84306220095704,-550 L198.84306220095704,-600 Z" fill="black" />
<path d="M206.09856459330155,-600 L213.35406698564606,-600 L213.35406698564606,-550 L206.09856459330155,-550 L206.09856459330155,-600 Z" fill="#f0f0f0" />
<path d="M213.35406698564606,-600 L220.60956937799057,-600 L220.60956937799057,-550 L213.35406698564606,-550 L213.35406698564606,-600 Z" fill="black" />
<path d="M220.60956937799057,-600 L227.86507177033508,-600 L227.86507177033508,-550 L220.60956937799057,-550 L220.60956937799057,-600 Z" fill="#f0f0f0" />
<path d="M227.86507177033508,-600 L235.1205741626796,-600 L235.1205741626796,-550 L227.86507177033508,-550 L227.86507177033508,-600 Z" fill="black" />
<path d="M235.1205741626796,-600 L242.3760765550241,-600 L242.3760765550241,-550 L235.1205741626796,-550 L235.1205741626796,-600 Z" fill="#f0f0f0" />
<path d="M242.3760765550241,-600 L249.6315789473686,-600 L249.6315789473686,-550 L242.3760765550241,-550 L242.3760765550241,-600 Z" fill="black" />
<path d="M249.6315789473686,-600 L256.8870813397131,-600 L256.8870813397131,-550 L249.6315789473686,-550 L249.6315789473686,-600 Z" fill="#f0f0f0" />
<path d="M256.8870813397131,-600 L264.14258373205763,-600 L264.14258373205763,-550 L256.8870813397131,-550 L256.8870813397131,-600 Z" fill="black" />
<path d="M264.14258373205763,-600 L271.39808612440214,-600 L271.39808612440214,-550 L264.14258373205763,-550 L264.14258373205763,-600 Z" fill="#f0f0f0" />
<path d="M271.39808612440214,-600 L278.65358851674665,-600 L278.65358851674665,-550 L271.39808612440214,-550 L271.39808612440214,-600 Z" fill="black" />
<path d="M278.65358851674665,-600 L285.90909090909116,-600 L285.90909090909116,-550 L278.65358851674665,-550 L278.65358851674665,-600 Z" fill="#f0f0f0" />
<path d="M285.90909090909116,-600 L293.1645933014357,-600 L293.1645933014357,-550 L285.90909090909116,-550 L285.90909090909116,-600 Z" fill="black" />
<path d="M293.1645933014357,-600 L300.4200956937802,-600 L300.4200956937802,-550 L293.1645933014357,-550 L293.1645933014357,-600 Z" fill="#f0f0f0" />
<path d="M300.4200956937802,-600 L307.6755980861247,-600 L307.6755980861247,-550 L300.4200956937802,-550 L300.4200956937802,-600 Z" fill="black" />
<path d="M307.6755980861247,-600 L314.9311004784692,-600 L314.9311004784692,-550 L307.6755980861247,-550 L307.6755980861247,-600 Z" fill="#f0f0f0" />
<path d="M314.9311004784692,-600 L322.1866028708137,-600 L322.1866028708137,-550 L314.9311004784692,-550 L314.9311004784692,-600 Z" fill="black" />
<path d="M322.1866028708137,-600 L329.4421052631582,-600 L329.4421052631582,-550 L322.1866028708137,-550 L322.1866028708137,-600 Z" fill="#f0f0f0" />
<path d="M329.4421052631582,-600 L336.69760765550274,-600 L336.69760765550274,-550 L329.4421052631582,-550 L329.4421052631582,-600 Z" fill="black" />
<path d="M336.69760765550274,-600 L343.95311004784725,-600 L343.95311004784725,-550 L336.69760765550274,-550 L336.69760765550274,-600 Z" fill="#f0f0f0" />
<path d="M343.95311004784725,-600 L351.20861244019176,-600 L351.20861244019176,-550 L343.95311004784725,-550 L343.95311004784725,-600 Z" fill="black" />
<path d="M351.20861244019176,-600 L358.46411483253627,-600 L358.46411483253627,-550 L351.20861244019176,-550 L351.20861244019176,-600 Z" fill="#f0f0f0" />
<path d="M358.46411483253627,-600 L365.7196172248808,-600 L365.7196172248808,-550 L358.46411483253627,-550 L358.46411483253627,-600 Z" fill="black" />
<path d="M365.7196172248808,-600 L372.9751196172253,-600 L372.9751196172253,-550 L365.7196172248808,-550 L365.7196172248808,-600 Z" fill="#f0f0f0" />
<path d="M372.9751196172253,-600 L380.2306220095698,-600 L380.2306220095698,-550 L372.9751196172253,-550 L372.9751196172253,-600 Z" fill="black" />
<path d="M380.2306220095698,-600 L387.4861244019143,-600 L387.4861244019143,-550 L380.2306220095698,-550 L380.2306220095698,-600 Z" fill="#f0f0f0" />
<path d="M387.4861244019143,-600 L394.7416267942588,-600 L394.7416267942588,-550 L387.4861244019143,-550 L387.4861244019143,-600 Z" fill="black" />
<path d="M394.7416267942588,-600 L401.99712918660333,-600 L401.99712918660333,-550 L394.7416267942588,-550 L394.7416267942588,-600 Z" fill="#f0f0f0" />
<path d="M401.99712918660333,-600 L409.25263157894784,-600 L409.25263157894784,-550 L401.99712918660333,-550 L401.99712918660333,-600 Z" fill="black" />
<path d="M409.25263157894784,-600 L416.50813397129235,-600 L416.50813397129235,-550 L409.25263157894784,-550 L409.25263157894784,-600 Z" fill="#f0f0f0" />
<path d="M416.50813397129235,-600 L423.76363636363686,-600 L423.76363636363686,-550 L416.50813397129235,-550 L416.50813397129235,-600 Z" fill="black" />
<path d="M423.76363636363686,-600 L431.0191387559814,-600 L431.0191387559814,-550 L423.76363636363686,-550 L423.76363636363686,-600 Z" fill="#f0f0f0" />
<path d="M431.0191387559814,-600 L438.2746411483259,-600 L438.2746411483259,-550 L431.0191387559814,-550 L431.0191387559814,-600 Z" fill="black" />
<path d="M438.2746411483259,-600 L445.5301435406704,-600 L445.5301435406704,-550 L438.2746411483259,-550 L438.2746411483259,-600 Z" fill="#f0f0f0" />
<path d="M445.5301435406704,-600 L452.7856459330149,-600 L452.7856459330149,-550 L445.5301435406704,-550 L445.5301435406704,-600 Z" fill="black" />
<path d="M452.7856459330149,-600 L460.0411483253594,-600 L460.0411483253594,-550 L452.7856459330149,-550 L452.7856459330149,-600 Z" fill="#f0f0f0" />
<path d="M460.0411483253594,-600 L467.2966507177039,-600 L467.2966507177039,-550 L460.0411483253594,-550 L460.0411483253594,-600 Z" fill="black" />
<path d="M467.2966507177039,-600 L474.55215311004844,-600 L474.55215311004844,-550 L467.2966507177039,-550 L467.2966507177039,-600 Z" fill="#f0f0f0" />
<path d="M474.55215311004844,-600 L481.80765550239295,-600 L481.80765550239295,-550 L474.55215311004844,-550 L474.55215311004844,-600 Z" fill="black" />
<path d="M481.80765550239295,-600 L489.06315789473746,-600 L489.06315789473746,-550 L481.80765550239295,-550 L481.80765550239295,-600 Z" fill="#f0f0f0" />
<path d="M489.06315789473746,-600 L496.31866028708197,-600 L496.31866028708197,-550 L489.06315789473746,-550 L489.06315789473746,-600 Z" fill="black" />
<path d="M496.31866028708197,-600 L503.5741626794265,-600 L503.5741626794265,-550 L496.31866028708197,-550 L496.31866028708197,-600 Z" fill="#f0f0f0" />
<path d="M503.5741626794265,-600 L510.829665071771,-600 L510.829665071771,-550 L503.5741626794265,-550 L503.5741626794265,-600 Z" fill="black" />
<path d="M510.829665071771,-600 L518.0851674641154,-600 L518.0851674641154,-550 L510.829665071771,-550 L510.829665071771,-600 Z" fill="#f0f0f0" />
<path d="M518.0851674641154,-600 L525.34066985646,-600 L525.34066985646,-550 L518.0851674641154,-550 L518.0851674641154,-600 Z" fill="black" />
<path d="M525.34066985646,-600 L532.5961722488045,-600 L532.5961722488045,-550 L525.34066985646,-550 L525.34066985646,-600 Z" fill="#f0f0f0" />
<path d="M532.5961722488045,-600 L539.851674641149,-600 L539.851674641149,-550 L532.5961722488045,-550 L532.5961722488045,-600 Z" fill="black" />
<path d="M539.851674641149,-600 L547.1071770334935,-600 L547.1071770334935,-550 L539.851674641149,-550 L539.851674641149,-600 Z" fill="#f0f0f0" />
<path d="M547.1071770334935,-600 L554.362679425838,-600 L554.362679425838,-550 L547.1071770334935,-550 L547.1071770334935,-600 Z" fill="black" />
<path d="M554.362679425838,-600 L561.6181818181825,-600 L561.6181818181825,-550 L554.362679425838,-550 L554.362679425838,-600 Z" fill="#f0f0f0" />
<path d="M561.6181818181825,-600 L568.873684210527,-600 L568.873684210527,-550 L561.6181818181825,-550 L561.6181818181825,-600 Z" fill="black" />
<path d="M568.873684210527,-600 L576.1291866028715,-600 L576.1291866028715,-550 L568.873684210527,-550 L568.873684210527,-600 Z" fill="#f0f0f0" />
<path d="M576.1291866028715,-600 L583.384688995216,-600 L583.384688995216,-550 L576.1291866028715,-550 L576.1291866028715,-600 Z" fill="black" />
<path d="M583.384688995216,-600 L590.6401913875605,-600 L590.6401913875605,-550 L583.384688995216,-550 L583.384688995216,-600 Z" fill="#f0f0f0" />
<path d="M590.6401913875605,-600 L597.8956937799051,-600 L597.8956937799051,-550 L590.6401913875605,-550 L590.6401913875605,-600 Z" fill="black" />
<path d="M597.8956937799051,-600 L605.1511961722496,-600 L605.1511961722496,-550 L597.8956937799051,-550 L597.8956937799051,-600 Z" fill="#f0f0f0" />
<path d="M605.1511961722496,-600 L612.4066985645941,-600 L612.4066985645941,-550 L605.1511961722496,-550 L605.1511961722496,-600 Z" fill="black" />
<path d="M612.4066985645941,-600 L619.6622009569386,-600 L619.6622009569386,-550 L612.4066985645941,-550 L612.4066985645941,-600 Z" fill="#f0f0f0" />
<path d="M619.6622009569386,-600 L626.9177033492831,-600 L626.9177033492831,-550 L619.6622009569386,-550 L619.6622009569386,-600 Z" fill="black" />
<path d="M626.9177033492831,-600 L634.1732057416276,-600 L634.1732057416276,-550 L626.9177033492831,-550 L626.9177033492831,-600 Z" fill="#f0f0f0" />
<path d="M634.1732057416276,-600 L641.4287081339721,-600 L641.4287081339721,-550 L634.1732057416276,-550 L634.1732057416276,-600 Z" fill="black" />
<path d="M641.4287081339721,-600 L648.6842105263166,-600 L648.6842105263166,-550 L641.4287081339721,-550 L641.4287081339721,-600 Z" fill="#f0f0f0" />
<path d="M648.6842105263166,-600 L655.9397129186611,-600 L655.9397129186611,-550 L648.6842105263166,-550 L648.6842105263166,-600 Z" fill="black" />
<path d="M655.9397129186611,-600 L663.1952153110057,-600 L663.1952153110057,-550 L655.9397129186611,-550 L655.9397129186611,-600 Z" fill="#f0f0f0" />
<path d="M663.1952153110057,-600 L670.4507177033502,-600 L670.4507177033502,-550 L663.1952153110057,-550 L663.1952153110057,-600 Z" fill="black" />
<path d="M670.4507177033502,-600 L677.7062200956947,-600 L677.7062200956947,-550 L670.4507177033502,-550 L670.4507177033502,-600 Z" fill="#f0f0f0" />
<path d="M677.7062200956947,-600 L684.9617224880392,-600 L684.9617224880392,-550 L677.7062200956947,-550 L677.7062200956947,-600 Z" fill="black" />
<path d="M684.9617224880392,-600 L692.2172248803837,-600 L692.2172248803837,-550 L684.9617224880392,-550 L684.9617224880392,-600 Z" fill="#f0f0f0" />
<path d="M692.2172248803837,-600 L699.4727272727282,-600 L699.4727272727282,-550 L692.2172248803837,-550 L692.2172248803837,-600 Z" fill="black" />
<path d="M699.4727272727282,-600 L706.7282296650727,-600 L706.7282296650727,-550 L699.4727272727282,-550 L699.4727272727282,-600 Z" fill="#f0f0f0" />
<path d="M706.7282296650727,-600 L713.9837320574172,-600 L713.9837320574172,-550 L706.7282296650727,-550 L706.7282296650727,-600 Z" fill="black" />
<path d="M713.9837320574172,-600 L721.2392344497617,-600 L721.2392344497617,-550 L713.9837320574172,-550 L713.9837320574172,-600 Z" fill="#f0f0f0" />
<path d="M721.2392344497617,-600 L728.4947368421062,-600 L728.4947368421062,-550 L721.2392344497617,-550 L721.2392344497617,-600 Z" fill="black" />
<path d="M728.4947368421062,-600 L735.7502392344508,-600 L735.7502392344508,-550 L728.4947368421062,-550 L728.4947368421062,-600 Z" fill="#f0f0f0" />
<path d="M735.7502392344508,-600 L743.0057416267953,-600 L743.0057416267953,-550 L735.7502392344508,-550 L735.7502392344508,-600 Z" fill="black" />
<path d="M743.0057416267953,-600 L750.2612440191398,-600 L750.2612440191398,-550 L743.0057416267953,-550 L743.0057416267953,-600 Z" fill="#f0f0f0" />
<path d="M750.2612440191398,-600 L757.5167464114843,-600 L757.5167464114843,-550 L750.2612440191398,-550 L750.2612440191398,-600 Z" fill="black" />
<path d="M757.5167464114843,-600 L764.7722488038288,-600 L764.7722488038288,-550 L757.5167464114843,-550 L757.5167464114843,-600 Z" fill="#f0f0f0" />
<path d="M764.7722488038288,-600 L772.0277511961733,-600 L772.0277511961733,-550 L764.7722488038288,-550 L764.7722488038288,-600 Z" fill="black" />
<path d="M772.0277511961733,-600 L779.2832535885178,-600 L779.2832535885178,-550 L772.0277511961733,-550 L772.0277511961733,-600 Z" fill="#f0f0f0" />
<path d="M779.2832535885178,-600 L786.5387559808623,-600 L786.5387559808623,-550 L779.2832535885178,-550 L779.2832535885178,-600 Z" fill="black" />
<path d="M786.5387559808623,-600 L793.7942583732068,-600 L793.7942583732068,-550 L786.5387559808623,-550 L786.5387559808623,-600 Z" fill="#f0f0f0" />
<path d="M793.7942583732068,-600 L801.0497607655514,-600 L801.0497607655514,-550 L793.7942583732068,-550 L793.7942583732068,-600 Z" fill="black" />
<path d="M801.0497607655514,-600 L808.3052631578959,-600 L808.3052631578959,-550 L801.0497607655514,-550 L801.0497607655514,-600 Z" fill="#f0f0f0" />
<path d="M808.3052631578959,-600 L815.5607655502404,-600 L815.5607655502404,-550 L808.3052631578959,-550 L808.3052631578959,-600 Z" fill="black" />
<path d="M815.5607655502404,-600 L822.8162679425849,-600 L822.8162679425849,-550 L815.5607655502404,-550 L815.5607655502404,-600 Z" fill="#f0f0f0" />
<path d="M822.8162679425849,-600 L830.0717703349294,-600 L830.0717703349294,-550 L822.8162679425849,-550 L822.8162679425849,-600 Z" fill="black" />
<path d="M830.0717703349294,-600 L837.3272727272739,-600 L837.3272727272739,-550 L830.0717703349294,-550 L830.0717703349294,-600 Z" fill="#f0f0f0" />
<path d="M837.3272727272739,-600 L844.5827751196184,-600 L844.5827751196184,-550 L837.3272727272739,-550 L837.3272727272739,-600 Z" fill="black" />
<path d="M844.5827751196184,-600 L851.8382775119629,-600 L851.8382775119629,-550 L844.5827751196184,-550 L844.5827751196184,-600 Z" fill="#f0f0f0" />
<path d="M851.8382775119629,-600 L859.0937799043074,-600 L859.0937799043074,-550 L851.8382775119629,-550 L851.8382775119629,-600 Z" fill="black" />
<path d="M859.0937799043074,-600 L866.349282296652,-600 L866.349282296652,-550 L859.0937799043074,-550 L859.0937799043074,-600 Z" fill="#f0f0f0" />
<path d="M866.349282296652,-600 L873.6047846889965,-600 L873.6047846889965,-550 L866.349282296652,-550 L866.349282296652,-600 Z" fill="black" />
<path d="M873.6047846889965,-600 L880.860287081341,-600 L880.860287081341,-550 L873.6047846889965,-550 L873.6047846889965,-600 Z" fill="#f0f0f0" />
<path d="M880.860287081341,-600 L888.1157894736855,-600 L888.1157894736855,-550 L880.860287081341,-550 L880.860287081341,-600 Z" fill="black" />
<path d="M888.1157894736855,-600 L895.37129186603,-600 L895.37129186603,-550 L888.1157894736855,-550 L888.1157894736855,-600 Z" fill="#f0f0f0" />
<path d="M895.37129186603,-600 L902.6267942583745,-600 L902.6267942583745,-550 L895.37129186603,-550 L895.37129186603,-600 Z" fill="black" />
<path d="M902.6267942583745,-600 L909.882296650719,-600 L909.882296650719,-550 L902.6267942583745,-550 L902.6267942583745,-600 Z" fill="#f0f0f0" />
<path d="M909.882296650719,-600 L917.1377990430635,-600 L917.1377990430635,-550 L909.882296650719,-550 L909.882296650719,-600 Z" fill="black" />
<path d="M917.1377990430635,-600 L924.393301435408,-600 L924.393301435408,-550 L917.1377990430635,-550 L917.1377990430635,-600 Z" fill="#f0f0f0" />
<path d="M924.393301435408,-600 L931.6488038277525,-600 L931.6488038277525,-550 L924.393301435408,-550 L924.393301435408,-600 Z" fill="black" />
<path d="M931.6488038277525,-600 L938.904306220097,-600 L938.904306220097,-550 L931.6488038277525,-550 L931.6488038277525,-600 Z" fill="#f0f0f0" />
<path d="M938.904306220097,-600 L946.1598086124416,-600 L946.1598086124416,-550 L938.904306220097,-550 L938.904306220097,-600 Z" fill="black" />
<path d="M946.1598086124416,-600 L953.4153110047861,-600 L953.4153110047861,-550 L946.1598086124416,-550 L946.1598086124416,-600 Z" fill="#f0f0f0" />
<path d="M953.4153110047861,-600 L960.6708133971306,-600 L960.6708133971306,-550 L953.4153110047861,-550 L953.4153110047861,-600 Z" fill="black" />
<path d="M960.6708133971306,-600 L967.9263157894751,-600 L967.9263157894751,-550 L960.6708133971306,-550 L960.6708133971306,-600 Z" fill="#f0f0f0" />
<path d="M967.9263157894751,-600 L975.1818181818196,-600 L975.1818181818196,-550 L967.9263157894751,-550 L967.9263157894751,-600 Z" fill="black" />
<path d="M975.1818181818196,-600 L982.4373205741641,-600 L982.4373205741641,-550 L975.1818181818196,-550 L975.1818181818196,-600 Z" fill="#f0f0f0" />
<path d="M982.4373205741641,-600 L989.6928229665086,-600 L989.6928229665086,-550 L982.4373205741641,-550 L982.4373205741641,-600 Z" fill="black" />
<path d="M989.6928229665086,-600 L996.9483253588531,-600 L996.9483253588531,-550 L989.6928229665086,-550 L989.6928229665086,-600 Z" fill="#f0f0f0" />
<path d="M996.9483253588531,-600 L1004.2038277511977,-600 L1004.2038277511977,-550 L996.9483253588531,-550 L996.9483253588531,-600 Z" fill="black" />
<path d="M1004.2038277511977,-600 L1011.4593301435422,-600 L1011.4593301435422,-550 L1004.2038277511977,-550 L1004.2038277511977,-600 Z" fill="#f0f0f0" />
<path d="M1011.4593301435422,-600 L1018.7148325358867,-600 L1018.7148325358867,-550 L1011.4593301435422,-550 L1011.4593301435422,-600 Z" fill="black" />
<path d="M1018.7148325358867,-600 L1025.970334928231,-600 L1025.970334928231,-550 L1018.7148325358867,-550 L1018.7148325358867,-600 Z" fill="#f0f0f0" />
<path d="M1025.970334928231,-600 L1033.2258373205755,-600 L1033.2258373205755,-550 L1025.970334928231,-550 L1025.970334928231,-600 Z" fill="black" />
<path d="M1033.2258373205755,-600 L1040.4813397129199,-600 L1040.4813397129199,-550 L1033.2258373205755,-550 L1033.2258373205755,-600 Z" fill="#f0f0f0" />
<path d="M1040.4813397129199,-600 L1047.7368421052643,-600 L1047.7368421052643,-550 L1040.4813397129199,-550 L1040.4813397129199,-600 Z" fill="black" />
<path d="M1047.7368421052643,-600 L1054.9923444976087,-600 L1054.9923444976087,-550 L1047.7368421052643,-550 L1047.7368421052643,-600 Z" fill="#f0f0f0" />
<path d="M1054.9923444976087,-600 L1062.247846889953,-600 L1062.247846889953,-550 L1054.9923444976087,-550 L1054.9923444976087,-600 Z" fill="black" />
<path d="M1062.247846889953,-600 L1069.5033492822974,-600 L1069.5033492822974,-550 L1062.247846889953,-550 L1062.247846889953,-600 Z" fill="#f0f0f0" />
<path d="M1069.5033492822974,-600 L1076.7588516746418,-600 L1076.7588516746418,-550 L1069.5033492822974,-550 L1069.5033492822974,-600 Z" fill="black" />
<path d="M1076.7588516746418,-600 L1084.0143540669862,-600 L1084.0143540669862,-550 L1076.7588516746418,-550 L1076.7588516746418,-600 Z" fill="#f0f0f0" />
<path d="M1084.0143540669862,-600 L1091.2698564593306,-600 L1091.2698564593306,-550 L1084.0143540669862,-550 L1084.0143540669862,-600 Z" fill="black" />
<path d="M1091.2698564593306,-600 L1098.525358851675,-600 L1098.525358851675,-550 L1091.2698564593306,-550 L1091.2698564593306,-600 Z" fill="#f0f0f0" />
<path d="M1098.525358851675,-600 L1105.7808612440194,-600 L1105.7808612440194,-550 L1098.525358851675,-550 L1098.525358851675,-600 Z" fill="black" />
<path d="M1105.7808612440194,-600 L1113.0363636363638,-600 L1113.0363636363638,-550 L1105.7808612440194,-550 L1105.7808612440194,-600 Z" fill="#f0f0f0" />
<path d="M1113.0363636363638,-600 L1120.2918660287082,-600 L1120.2918660287082,-550 L1113.0363636363638,-550 L1113.0363636363638,-600 Z" fill="black" />
<path d="M1120.2918660287082,-600 L1127.5473684210526,-600 L1127.5473684210526,-550 L1120.2918660287082,-550 L1120.2918660287082,-600 Z" fill="#f0f0f0" />
<path d="M1127.5473684210526,-600 L1134.802870813397,-600 L1134.802870813397,-550 L1127.5473684210526,-550 L1127.5473684210526,-600 Z" fill="black" />
<path d="M1134.802870813397,-600 L1142.0583732057414,-600 L1142.0583732057414,-550 L1134.802870813397,-550 L1134.802870813397,-600 Z" fill="#f0f0f0" />
<path d="M1142.0583732057414,-600 L1149.3138755980858,-600 L1149.3138755980858,-550 L1142.0583732057414,-550 L1142.0583732057414,-600 Z" fill="black" />
<path d="M1149.3138755980858,-600 L1156.5693779904302,-600 L1156.5693779904302,-550 L1149.3138755980858,-550 L1149.3138755980858,-600 Z" fill="#f0f0f0" />
<path d="M1156.5693779904302,-600 L1163.8248803827746,-600 L1163.8248803827746,-550 L1156.5693779904302,-550 L1156.5693779904302,-600 Z" fill="black" />
<path d="M1163.8248803827746,-600 L1171.080382775119,-600 L1171.080382775119,-550 L1163.8248803827746,-550 L1163.8248803827746,-600 Z" fill="#f0f0f0" />
<path d="M1171.080382775119,-600 L1178.3358851674634,-600 L1178.3358851674634,-550 L1171.080382775119,-550 L1171.080382775119,-600 Z" fill="black" />
<path d="M1178.3358851674634,-600 L1185.5913875598078,-600 L1185.5913875598078,-550 L1178.3358851674634,-550 L1178.3358851674634,-600 Z" fill="#f0f0f0" />
<path d="M1185.5913875598078,-600 L1192.8468899521522,-600 L1192.8468899521522,-550 L1185.5913875598078,-550 L1185.5913875598078,-600 Z" fill="black" />
<path d="M1192.8468899521522,-600 L1200.1023923444966,-600 L1200.1023923444966,-550 L1192.8468899521522,-550 L1192.8468899521522,-600 Z" fill="#f0f0f0" />
<path d="M1200.1023923444966,-600 L1207.357894736841,-600 L1207.357894736841,-550 L1200.1023923444966,-550 L1200.1023923444966,-600 Z" fill="black" />
<path d="M1207.357894736841,-600 L1214.6133971291854,-600 L1214.6133971291854,-550 L1207.357894736841,-550 L1207.357894736841,-600 Z" fill="#f0f0f0" />
<path d="M1214.6133971291854,-600 L1221.8688995215298,-600 L1221.8688995215298,-550 L1214.6133971291854,-550 L1214.6133971291854,-600 Z" fill="black" />
<path d="M1221.8688995215298,-600 L1229.1244019138742,-600 L1229.1244019138742,-550 L1221.8688995215298,-550 L1221.8688995215298,-600 Z" fill="#f0f0f0" />
<path d="M1229.1244019138742,-600 L1236.3799043062186,-600 L1236.3799043062186,-550 L1229.1244019138742,-550 L1229.1244019138742,-600 Z" fill="black" />
<path d="M1236.3799043062186,-600 L1243.635406698563,-600 L1243.635406698563,-550 L1236.3799043062186,-550 L1236.3799043062186,-600 Z" fill="#f0f0f0" />
<path d="M1243.635406698563,-600 L1250.8909090909074,-600 L1250.8909090909074,-550 L1243.635406698563,-550 L1243.635406698563,-600 Z" fill="black" />
<path d="M1250.8909090909074,-600 L1258.1464114832518,-600 L1258.1464114832518,-550 L1250.8909090909074,-550 L1250.8909090909074,-600 Z" fill="#f0f0f0" />
<path d="M1258.1464114832518,-600 L1265.4019138755962,-600 L1265.4019138755962,-550 L1258.1464114832518,-550 L1258.1464114832518,-600 Z" fill="black" />
<path d="M1265.4019138755962,-600 L1272.6574162679406,-600 L1272.6574162679406,-550 L1265.4019138755962,-550 L1265.4019138755962,-600 Z" fill="#f0f0f0" />
<path d="M1272.6574162679406,-600 L1279.912918660285,-600 L1279.912918660285,-550 L1272.6574162679406,-550 L1272.6574162679406,-600 Z" fill="black" />
<path d="M1279.912918660285,-600 L1287.1684210526294,-600 L1287.1684210526294,-550 L1279.912918660285,-550 L1279.912918660285,-600 Z" fill="#f0f0f0" />
<path d="M1287.1684210526294,-600 L1294.4239234449738,-600 L1294.4239234449738,-550 L1287.1684210526294,-550 L1287.1684210526294,-600 Z" fill="black" />
<path d="M1294.4239234449738,-600 L1301.6794258373181,-600 L1301.6794258373181,-550 L1294.4239234449738,-550 L1294.4239234449738,-600 Z" fill="#f0f0f0" />
<path d="M1301.6794258373181,-600 L1308.9349282296625,-600 L1308.9349282296625,-550 L1301.6794258373181,-550 L1301.6794258373181,-600 Z" fill="black" />
<path d="M1308.9349282296625,-600 L1316.190430622007,-600 L1316.190430622007,-550 L1308.9349282296625,-550 L1308.9349282296625,-600 Z" fill="#f0f0f0" />
<path d="M1316.190430622007,-600 L1323.4459330143513,-600 L1323.4459330143513,-550 L1316.190430622007,-550 L1316.190430622007,-600 Z" fill="black" />
<path d="M1323.4459330143513,-600 L1330.7014354066957,-600 L1330.7014354066957,-550 L1323.4459330143513,-550 L1323.4459330143513,-600 Z" fill="#f0f0f0" />
<path d="M1330.7014354066957,-600 L1337.9569377990401,-600 L1337.9569377990401,-550 L1330.7014354066957,-550 L1330.7014354066957,-600 Z" fill="black" />
<path d="M1337.9569377990401,-600 L1345.2124401913845,-600 L1345.2124401913845,-550 L1337.9569377990401,-550 L1337.9569377990401,-600 Z" fill="#f0f0f0" />
<path d="M1345.2124401913845,-600 L1352.467942583729,-600 L1352.467942583729,-550 L1345.2124401913845,-550 L1345.2124401913845,-600 Z" fill="black" />
<path d="M1352.467942583729,-600 L1359.7234449760733,-600 L1359.7234449760733,-550 L1352.467942583729,-550 L1352.467942583729,-600 Z" fill="#f0f0f0" />
<path d="M1359.7234449760733,-600 L1366.9789473684177,-600 L1366.9789473684177,-550 L1359.7234449760733,-550 L1359.7234449760733,-600 Z" fill="black" />
<path d="M1366.9789473684177,-600 L1374.2344497607621,-600 L1374.2344497607621,-550 L1366.9789473684177,-550 L1366.9789473684177,-600 Z" fill="#f0f0f0" />
<path d="M1374.2344497607621,-600 L1381.4899521531065,-600 L1381.4899521531065,-550 L1374.2344497607621,-550 L1374.2344497607621,-600 Z" fill="black" />
<path d="M1381.4899521531065,-600 L1388.745454545451,-600 L1388.745454545451,-550 L1381.4899521531065,-550 L1381.4899521531065,-600 Z" fill="#f0f0f0" />
<path d="M1388.745454545451,-600 L1396.0009569377953,-600 L1396.0009569377953,-550 L1388.745454545451,-550 L1388.745454545451,-600 Z" fill="black" />
<path d="M1396.0009569377953,-600 L1403.2564593301397,-600 L1403.2564593301397,-550 L1396.0009569377953,-550 L1396.0009569377953,-600 Z" fill="#f0f0f0" />
<path d="M1403.2564593301397,-600 L1410.511961722484,-600 L1410.511961722484,-550 L1403.2564593301397,-550 L1403.2564593301397,-600 Z" fill="black" />
<path d="M1410.511961722484,-600 L1417.7674641148285,-600 L1417.7674641148285,-550 L1410.511961722484,-550 L1410.511961722484,-600 Z" fill="#f0f0f0" />
<path d="M1417.7674641148285,-600 L1425.022966507173,-600 L1425.022966507173,-550 L1417.7674641148285,-550 L1417.7674641148285,-600 Z" fill="black" />
<path d="M1425.022966507173,-600 L1432.2784688995173,-600 L1432.2784688995173,-550 L1425.022966507173,-550 L1425.022966507173,-600 Z" fill="#f0f0f0" />
<path d="M1432.2784688995173,-600 L1439.5339712918617,-600 L1439.5339712918617,-550 L1432.2784688995173,-550 L1432.2784688995173,-600 Z" fill="black" />
<path d="M1439.5339712918617,-600 L1446.789473684206,-600 L1446.789473684206,-550 L1439.5339712918617,-550 L1439.5339712918617,-600 Z" fill="#f0f0f0" />
<path d="M1446.789473684206,-600 L1454.0449760765505,-600 L1454.0449760765505,-550 L1446.789473684206,-550 L1446.789473684206,-600 Z" fill="black" />
<path d="M1454.0449760765505,-600 L1461.3004784688949,-600 L1461.3004784688949,-550 L1454.0449760765505,-550 L1454.0449760765505,-600 Z" fill="#f0f0f0" />
<path d="M1461.3004784688949,-600 L1468.5559808612393,-600 L1468.5559808612393,-550 L1461.3004784688949,-550 L1461.3004784688949,-600 Z" fill="black" />
<path d="M1468.5559808612393,-600 L1475.8114832535837,-600 L1475.8114832535837,-550 L1468.5559808612393,-550 L1468.5559808612393,-600 Z" fill="#f0f0f0" />
<path d="M1475.8114832535837,-600 L1483.066985645928,-600 L1483.066985645928,-550 L1475.8114832535837,-550 L1475.8114832535837,-600 Z" fill="black" />
<path d="M1483.066985645928,-600 L1490.3224880382725,-600 L1490.3224880382725,-550 L1483.066985645928,-550 L1483.066985645928,-600 Z" fill="#f0f0f0" />
<path d="M1490.3224880382725,-600 L1497.5779904306169,-600 L1497.5779904306169,-550 L1490.3224880382725,-550 L1490.3224880382725,-600 Z" fill="black" />
<path d="M1497.5779904306169,-600 L1504.8334928229613,-600 L1504.8334928229613,-550 L1497.5779904306169,-550 L1497.5779904306169,-600 Z" fill="#f0f0f0" />
<path d="M1504.8334928229613,-600 L1512.0889952153057,-600 L1512.0889952153057,-550 L1504.8334928229613,-550 L1504.8334928229613,-600 Z" fill="black" />
<path d="M1512.0889952153057,-600 L1519.34449760765,-600 L1519.34449760765,-550 L1512.0889952153057,-550 L1512.0889952153057,-600 Z" fill="#f0f0f0" />
<path d="M1519.34449760765,-600 L1526.5999999999945,-600 L1526.5999999999945,-550 L1519.34449760765,-550 L1519.34449760765,-600 Z" fill="black" />
<text x="10.2" y="-610" font-size="26" fill="black" dy="0em">CRISPR</text>
<text x="16.0" y="-660" font-size="38" fill="black" dy="0em">Unknown: 6c3b2ade31d3833745|6d7bd366529699c6c0|335178a75bc6a76e6b|2344771|SLTJ01000030.1:9622-35296(REV)_2 (120-7702)</text>
<path d="M10.2,-400 L395.8,-400 L395.8,-350 L10.2,-350 L10.2,-400 Z" fill="white" stroke="white" stroke-width="4" />
<path d="M10.2,-400 L17.475471698113207,-400 L17.475471698113207,-350 L10.2,-350 L10.2,-400 Z" fill="black" />
<path d="M17.475471698113207,-400 L24.750943396226415,-400 L24.750943396226415,-350 L17.475471698113207,-350 L17.475471698113207,-400 Z" fill="#f0f0f0" />
<path d="M24.750943396226415,-400 L32.026415094339626,-400 L32.026415094339626,-350 L24.750943396226415,-350 L24.750943396226415,-400 Z" fill="black" />
<path d="M32.026415094339626,-400 L39.301886792452834,-400 L39.301886792452834,-350 L32.026415094339626,-350 L32.026415094339626,-400 Z" fill="#f0f0f0" />
<path d="M39.301886792452834,-400 L46.57735849056604,-400 L46.57735849056604,-350 L39.301886792452834,-350 L39.301886792452834,-400 Z" fill="black" />
<path d="M46.57735849056604,-400 L53.85283018867925,-400 L53.85283018867925,-350 L46.57735849056604,-350 L46.57735849056604,-400 Z" fill="#f0f0f0" />
<path d="M53.85283018867925,-400 L61.12830188679246,-400 L61.12830188679246,-350 L53.85283018867925,-350 L53.85283018867925,-400 Z" fill="black" />
<path d="M61.12830188679246,-400 L68.40377358490566,-400 L68.40377358490566,-350 L61.12830188679246,-350 L61.12830188679246,-400 Z" fill="#f0f0f0" />
<path d="M68.40377358490566,-400 L75.67924528301887,-400 L75.67924528301887,-350 L68.40377358490566,-350 L68.40377358490566,-400 Z" fill="black" />
<path d="M75.67924528301887,-400 L82.95471698113208,-400 L82.95471698113208,-350 L75.67924528301887,-350 L75.67924528301887,-400 Z" fill="#f0f0f0" />
<path d="M82.95471698113208,-400 L90.23018867924529,-400 L90.23018867924529,-350 L82.95471698113208,-350 L82.95471698113208,-400 Z" fill="black" />
<path d="M90.23018867924529,-400 L97.5056603773585,-400 L97.5056603773585,-350 L90.23018867924529,-350 L90.23018867924529,-400 Z" fill="#f0f0f0" />
<path d="M97.5056603773585,-400 L104.7811320754717,-400 L104.7811320754717,-350 L97.5056603773585,-350 L97.5056603773585,-400 Z" fill="black" />
<path d="M104.7811320754717,-400 L112.05660377358491,-400 L112.05660377358491,-350 L104.7811320754717,-350 L104.7811320754717,-400 Z" fill="#f0f0f0" />
<path d="M112.05660377358491,-400 L119.33207547169812,-400 L119.33207547169812,-350 L112.05660377358491,-350 L112.05660377358491,-400 Z" fill="black" />
<path d="M119.33207547169812,-400 L126.60754716981133,-400 L126.60754716981133,-350 L119.33207547169812,-350 L119.33207547169812,-400 Z" fill="#f0f0f0" />
<path d="M126.60754716981133,-400 L133.88301886792453,-400 L133.88301886792453,-350 L126.60754716981133,-350 L126.60754716981133,-400 Z" fill="black" />
<path d="M133.88301886792453,-400 L141.15849056603776,-400 L141.15849056603776,-350 L133.88301886792453,-350 L133.88301886792453,-400 Z" fill="#f0f0f0" />
<path d="M141.15849056603776,-400 L148.43396226415098,-400 L148.43396226415098,-350 L141.15849056603776,-350 L141.15849056603776,-400 Z" fill="black" />
<path d="M148.43396226415098,-400 L155.7094339622642,-400 L155.7094339622642,-350 L148.43396226415098,-350 L148.43396226415098,-400 Z" fill="#f0f0f0" />
<path d="M155.7094339622642,-400 L162.98490566037742,-400 L162.98490566037742,-350 L155.7094339622642,-350 L155.7094339622642,-400 Z" fill="black" />
<path d="M162.98490566037742,-400 L170.26037735849064,-400 L170.26037735849064,-350 L162.98490566037742,-350 L162.98490566037742,-400 Z" fill="#f0f0f0" />
<path d="M170.26037735849064,-400 L177.53584905660387,-400 L177.53584905660387,-350 L170.26037735849064,-350 L170.26037735849064,-400 Z" fill="black" />
<path d="M177.53584905660387,-400 L184.8113207547171,-400 L184.8113207547171,-350 L177.53584905660387,-350 L177.53584905660387,-400 Z" fill="#f0f0f0" />
<path d="M184.8113207547171,-400 L192.0867924528303,-400 L192.0867924528303,-350 L184.8113207547171,-350 L184.8113207547171,-400 Z" fill="black" />
<path d="M192.0867924528303,-400 L199.36226415094353,-400 L199.36226415094353,-350 L192.0867924528303,-350 L192.0867924528303,-400 Z" fill="#f0f0f0" />
<path d="M199.36226415094353,-400 L206.63773584905675,-400 L206.63773584905675,-350 L199.36226415094353,-350 L199.36226415094353,-400 Z" fill="black" />
<path d="M206.63773584905675,-400 L213.91320754716997,-400 L213.91320754716997,-350 L206.63773584905675,-350 L206.63773584905675,-400 Z" fill="#f0f0f0" />
<path d="M213.91320754716997,-400 L221.1886792452832,-400 L221.1886792452832,-350 L213.91320754716997,-350 L213.91320754716997,-400 Z" fill="black" />
<path d="M221.1886792452832,-400 L228.46415094339642,-400 L228.46415094339642,-350 L221.1886792452832,-350 L221.1886792452832,-400 Z" fill="#f0f0f0" />
<path d="M228.46415094339642,-400 L235.73962264150964,-400 L235.73962264150964,-350 L228.46415094339642,-350 L228.46415094339642,-400 Z" fill="black" />
<path d="M235.73962264150964,-400 L243.01509433962286,-400 L243.01509433962286,-350 L235.73962264150964,-350 L235.73962264150964,-400 Z" fill="#f0f0f0" />
<path d="M243.01509433962286,-400 L250.29056603773608,-400 L250.29056603773608,-350 L243.01509433962286,-350 L243.01509433962286,-400 Z" fill="black" />
<path d="M250.29056603773608,-400 L257.5660377358493,-400 L257.5660377358493,-350 L250.29056603773608,-350 L250.29056603773608,-400 Z" fill="#f0f0f0" />
<path d="M257.5660377358493,-400 L264.8415094339625,-400 L264.8415094339625,-350 L257.5660377358493,-350 L257.5660377358493,-400 Z" fill="black" />
<path d="M264.8415094339625,-400 L272.11698113207575,-400 L272.11698113207575,-350 L264.8415094339625,-350 L264.8415094339625,-400 Z" fill="#f0f0f0" />
<path d="M272.11698113207575,-400 L279.392452830189,-400 L279.392452830189,-350 L272.11698113207575,-350 L272.11698113207575,-400 Z" fill="black" />
<path d="M279.392452830189,-400 L286.6679245283022,-400 L286.6679245283022,-350 L279.392452830189,-350 L279.392452830189,-400 Z" fill="#f0f0f0" />
<path d="M286.6679245283022,-400 L293.9433962264154,-400 L293.9433962264154,-350 L286.6679245283022,-350 L286.6679245283022,-400 Z" fill="black" />
<path d="M293.9433962264154,-400 L301.21886792452864,-400 L301.21886792452864,-350 L293.9433962264154,-350 L293.9433962264154,-400 Z" fill="#f0f0f0" />
<path d="M301.21886792452864,-400 L308.49433962264186,-400 L308.49433962264186,-350 L301.21886792452864,-350 L301.21886792452864,-400 Z" fill="black" />
<path d="M308.49433962264186,-400 L315.7698113207551,-400 L315.7698113207551,-350 L308.49433962264186,-350 L308.49433962264186,-400 Z" fill="#f0f0f0" />
<path d="M315.7698113207551,-400 L323.0452830188683,-400 L323.0452830188683,-350 L315.7698113207551,-350 L315.7698113207551,-400 Z" fill="black" />
<path d="M323.0452830188683,-400 L330.3207547169815,-400 L330.3207547169815,-350 L323.0452830188683,-350 L323.0452830188683,-400 Z" fill="#f0f0f0" />
<path d="M330.3207547169815,-400 L337.59622641509475,-400 L337.59622641509475,-350 L330.3207547169815,-350 L330.3207547169815,-400 Z" fill="black" />
<path d="M337.59622641509475,-400 L344.87169811320797,-400 L344.87169811320797,-350 L337.59622641509475,-350 L337.59622641509475,-400 Z" fill="#f0f0f0" />
<path d="M344.87169811320797,-400 L352.1471698113212,-400 L352.1471698113212,-350 L344.87169811320797,-350 L344.87169811320797,-400 Z" fill="black" />
<path d="M352.1471698113212,-400 L359.4226415094344,-400 L359.4226415094344,-350 L352.1471698113212,-350 L352.1471698113212,-400 Z" fill="#f0f0f0" />
<path d="M359.4226415094344,-400 L366.69811320754764,-400 L366.69811320754764,-350 L359.4226415094344,-350 L359.4226415094344,-400 Z" fill="black" />
<path d="M366.69811320754764,-400 L373.97358490566086,-400 L373.97358490566086,-350 L366.69811320754764,-350 L366.69811320754764,-400 Z" fill="#f0f0f0" />
<path d="M373.97358490566086,-400 L381.2490566037741,-400 L381.2490566037741,-350 L373.97358490566086,-350 L373.97358490566086,-400 Z" fill="black" />
<path d="M381.2490566037741,-400 L388.5245283018873,-400 L388.5245283018873,-350 L381.2490566037741,-350 L381.2490566037741,-400 Z" fill="#f0f0f0" />
<path d="M388.5245283018873,-400 L395.8000000000005,-400 L395.8000000000005,-350 L388.5245283018873,-350 L388.5245283018873,-400 Z" fill="black" />
<text x="10.2" y="-410" font-size="26" fill="black" dy="0em">CRISPR</text>
<text x="16.0" y="-460" font-size="38" fill="black" dy="0em">Unknown: 6c3b2ade31d3833745|6d7bd366529699c6c0|335178a75bc6a76e6b|2344771|SLTJ01000030.1:9622-35296(REV)_3 (7821-9749)</text>
<path d="M10.2,-200 L133.8,-200 L133.8,-150 L10.2,-150 L10.2,-200 Z" fill="white" stroke="white" stroke-width="4" />
<path d="M10.2,-200 L17.470588235294116,-200 L17.470588235294116,-150 L10.2,-150 L10.2,-200 Z" fill="black" />
<path d="M17.470588235294116,-200 L24.741176470588233,-200 L24.741176470588233,-150 L17.470588235294116,-150 L17.470588235294116,-200 Z" fill="#f0f0f0" />
<path d="M24.741176470588233,-200 L32.01176470588235,-200 L32.01176470588235,-150 L24.741176470588233,-150 L24.741176470588233,-200 Z" fill="black" />
<path d="M32.01176470588235,-200 L39.28235294117647,-200 L39.28235294117647,-150 L32.01176470588235,-150 L32.01176470588235,-200 Z" fill="#f0f0f0" />
<path d="M39.28235294117647,-200 L46.55294117647059,-200 L46.55294117647059,-150 L39.28235294117647,-150 L39.28235294117647,-200 Z" fill="black" />
<path d="M46.55294117647059,-200 L53.82352941176471,-200 L53.82352941176471,-150 L46.55294117647059,-150 L46.55294117647059,-200 Z" fill="#f0f0f0" />
<path d="M53.82352941176471,-200 L61.09411764705883,-200 L61.09411764705883,-150 L53.82352941176471,-150 L53.82352941176471,-200 Z" fill="black" />
<path d="M61.09411764705883,-200 L68.36470588235295,-200 L68.36470588235295,-150 L61.09411764705883,-150 L61.09411764705883,-200 Z" fill="#f0f0f0" />
<path d="M68.36470588235295,-200 L75.63529411764706,-200 L75.63529411764706,-150 L68.36470588235295,-150 L68.36470588235295,-200 Z" fill="black" />
<path d="M75.63529411764706,-200 L82.90588235294118,-200 L82.90588235294118,-150 L75.63529411764706,-150 L75.63529411764706,-200 Z" fill="#f0f0f0" />
<path d="M82.90588235294118,-200 L90.17647058823529,-200 L90.17647058823529,-150 L82.90588235294118,-150 L82.90588235294118,-200 Z" fill="black" />
<path d="M90.17647058823529,-200 L97.4470588235294,-200 L97.4470588235294,-150 L90.17647058823529,-150 L90.17647058823529,-200 Z" fill="#f0f0f0" />
<path d="M97.4470588235294,-200 L104.71764705882352,-200 L104.71764705882352,-150 L97.4470588235294,-150 L97.4470588235294,-200 Z" fill="black" />
<path d="M104.71764705882352,-200 L111.98823529411763,-200 L111.98823529411763,-150 L104.71764705882352,-150 L104.71764705882352,-200 Z" fill="#f0f0f0" />
<path d="M111.98823529411763,-200 L119.25882352941174,-200 L119.25882352941174,-150 L111.98823529411763,-150 L111.98823529411763,-200 Z" fill="black" />
<path d="M119.25882352941174,-200 L126.52941176470586,-200 L126.52941176470586,-150 L119.25882352941174,-150 L119.25882352941174,-200 Z" fill="#f0f0f0" />
<path d="M126.52941176470586,-200 L133.79999999999998,-200 L133.79999999999998,-150 L126.52941176470586,-150 L126.52941176470586,-200 Z" fill="black" />
<text x="10.2" y="-210" font-size="26" fill="black" dy="0em">CRISPR</text>
<text x="16.0" y="-260" font-size="38" fill="black" dy="0em">Unknown: 6c3b2ade31d3833745|6d7bd366529699c6c0|335178a75bc6a76e6b|2344771|SLTJ01000030.1:9622-35296(REV)_4 (11670-12288)</text>
</svg>