<?xml version="1.0" encoding="UTF-8"?>
<svg xmlns="http://www.w3.org/2000/svg" xmlns:xlink="http://www.w3.org/1999/xlink"
     width="1751" height="800" viewBox="0 -800 1751 800">
<defs>
</defs>
<path d="M210,-20 L210,-720" stroke="grey" stroke-width="1" fill="none" />
<text x="160" y="-730" font-size="22" fill="grey" dy="0em">1000</text>
<path d="M410,-20 L410,-720" stroke="grey" stroke-width="1" fill="none" />
<text x="360" y="-730" font-size="22" fill="grey" dy="0em">2000</text>
<path d="M610,-20 L610,-720" stroke="grey" stroke-width="1" fill="none" />
<text x="560" y="-730" font-size="22" fill="grey" dy="0em">3000</text>
<path d="M810,-20 L810,-720" stroke="grey" stroke-width="1" fill="none" />
<text x="760" y="-730" font-size="22" fill="grey" dy="0em">4000</text>
<path d="M1010,-20 L1010,-720" stroke="grey" stroke-width="1" fill="none" />
<text x="960" y="-730" font-size="22" fill="grey" dy="0em">5000</text>
<path d="M1210,-20 L1210,-720" stroke="grey" stroke-width="1" fill="none" />
<text x="1160" y="-730" font-size="22" fill="grey" dy="0em">6000</text>
<path d="M1410,-20 L1410,-720" stroke="grey" stroke-width="1" fill="none" />
<text x="1360" y="-730" font-size="22" fill="grey" dy="0em">7000</text>
<path d="M1610,-20 L1610,-720" stroke="grey" stroke-width="1" fill="none" />
<text x="1560" y="-730" font-size="22" fill="grey" dy="0em">8000</text>
<text x="16.0" y="-660" font-size="38" fill="black" dy="0em">Unknown: aa6af7e9289c3558d3|a459dc1ed2eb0e065b|a459dc1ed2eb0e065b|110968|NC_014041.1:4748498-4774274(REV)@1 (3270-11524)</text>
<path d="M485.8,-600 L525.2,-600 L525.2,-550 L485.8,-550 L455.8,-575.0 L485.8,-600 Z" fill="#5b5ea6" fill-opacity="0.8" stroke="#5b5ea6" stroke-width="4" />
<text x="455.8" y="-610" font-size="26" fill="black" dy="0em">Cas2</text>
<path d="M602.4,-600 L632.2,-600 L632.2,-550 L602.4,-550 L572.4,-575.0 L602.4,-600 Z" fill="#d3c9c1" fill-opacity="0.8" stroke="#d3c9c1" stroke-width="4" />
<text x="572.4" y="-520" font-size="20" fill="black" dy="0em">5</text>
<path d="M677.2,-600 L826.4000000000001,-600 L826.4000000000001,-550 L677.2,-550 L647.2,-575.0 L677.2,-600 Z" fill="#5b5ea6" fill-opacity="0.8" stroke="#5b5ea6" stroke-width="4" />
<text x="647.2" y="-610" font-size="26" fill="black" dy="0em">Cas1</text>
<path d="M857.8000000000001,-600 L1661.0,-600 L1661.0,-550 L857.8000000000001,-550 L827.8000000000001,-575.0 L857.8000000000001,-600 Z" fill="#efc050" fill-opacity="0.8" stroke="#efc050" stroke-width="4" />
<text x="827.8000000000001" y="-520" font-size="26" fill="black" dy="0em">Cas9</text>
<path d="M10.2,-600 L432.6,-600 L432.6,-550 L10.2,-550 L10.2,-600 Z" fill="white" stroke="white" stroke-width="4" />
<path d="M10.2,-600 L17.88,-600 L17.88,-550 L10.2,-550 L10.2,-600 Z" fill="black" />
<path d="M17.88,-600 L25.56,-600 L25.56,-550 L17.88,-550 L17.88,-600 Z" fill="#f0f0f0" />
<path d="M25.56,-600 L33.239999999999995,-600 L33.239999999999995,-550 L25.56,-550 L25.56,-600 Z" fill="black" />
<path d="M33.239999999999995,-600 L40.919999999999995,-600 L40.919999999999995,-550 L33.239999999999995,-550 L33.239999999999995,-600 Z" fill="#f0f0f0" />
<path d="M40.919999999999995,-600 L48.599999999999994,-600 L48.599999999999994,-550 L40.919999999999995,-550 L40.919999999999995,-600 Z" fill="black" />
<path d="M48.599999999999994,-600 L56.279999999999994,-600 L56.279999999999994,-550 L48.599999999999994,-550 L48.599999999999994,-600 Z" fill="#f0f0f0" />
<path d="M56.279999999999994,-600 L63.959999999999994,-600 L63.959999999999994,-550 L56.279999999999994,-550 L56.279999999999994,-600 Z" fill="black" />
<path d="M63.959999999999994,-600 L71.63999999999999,-600 L71.63999999999999,-550 L63.959999999999994,-550 L63.959999999999994,-600 Z" fill="#f0f0f0" />
<path d="M71.63999999999999,-600 L79.32,-600 L79.32,-550 L71.63999999999999,-550 L71.63999999999999,-600 Z" fill="black" />
<path d="M79.32,-600 L87.0,-600 L87.0,-550 L79.32,-550 L79.32,-600 Z" fill="#f0f0f0" />
<path d="M87.0,-600 L94.68,-600 L94.68,-550 L87.0,-550 L87.0,-600 Z" fill="black" />
<path d="M94.68,-600 L102.36000000000001,-600 L102.36000000000001,-550 L94.68,-550 L94.68,-600 Z" fill="#f0f0f0" />
<path d="M102.36000000000001,-600 L110.04000000000002,-600 L110.04000000000002,-550 L102.36000000000001,-550 L102.36000000000001,-600 Z" fill="black" />
<path d="M110.04000000000002,-600 L117.72000000000003,-600 L117.72000000000003,-550 L110.04000000000002,-550 L110.04000000000002,-600 Z" fill="#f0f0f0" />
<path d="M117.72000000000003,-600 L125.40000000000003,-600 L125.40000000000003,-550 L117.72000000000003,-550 L117.72000000000003,-600 Z" fill="black" />
<path d="M125.40000000000003,-600 L133.08000000000004,-600 L133.08000000000004,-550 L125.40000000000003,-550 L125.40000000000003,-600 Z" fill="#f0f0f0" />
<path d="M133.08000000000004,-600 L140.76000000000005,-600 L140.76000000000005,-550 L133.08000000000004,-550 L133.08000000000004,-600 Z" fill="black" />
<path d="M140.76000000000005,-600 L148.44000000000005,-600 L148.44000000000005,-550 L140.76000000000005,-550 L140.76000000000005,-600 Z" fill="#f0f0f0" />
<path d="M148.44000000000005,-600 L156.12000000000006,-600 L156.12000000000006,-550 L148.44000000000005,-550 L148.44000000000005,-600 Z" fill="black" />
<path d="M156.12000000000006,-600 L163.80000000000007,-600 L163.80000000000007,-550 L156.12000000000006,-550 L156.12000000000006,-600 Z" fill="#f0f0f0" />
<path d="M163.80000000000007,-600 L171.48000000000008,-600 L171.48000000000008,-550 L163.80000000000007,-550 L163.80000000000007,-600 Z" fill="black" />
<path d="M171.48000000000008,-600 L179.16000000000008,-600 L179.16000000000008,-550 L171.48000000000008,-550 L171.48000000000008,-600 Z" fill="#f0f0f0" />
<path d="M179.16000000000008,-600 L186.8400000000001,-600 L186.8400000000001,-550 L179.16000000000008,-550 L179.16000000000008,-600 Z" fill="black" />
<path d="M186.8400000000001,-600 L194.5200000000001,-600 L194.5200000000001,-550 L186.8400000000001,-550 L186.8400000000001,-600 Z" fill="#f0f0f0" />
<path d="M194.5200000000001,-600 L202.2000000000001,-600 L202.2000000000001,-550 L194.5200000000001,-550 L194.5200000000001,-600 Z" fill="black" />
<path d="M202.2000000000001,-600 L209.8800000000001,-600 L209.8800000000001,-550 L202.2000000000001,-550 L202.2000000000001,-600 Z" fill="#f0f0f0" />
<path d="M209.8800000000001,-600 L217.56000000000012,-600 L217.56000000000012,-550 L209.8800000000001,-550 L209.8800000000001,-600 Z" fill="black" />
<path d="M217.56000000000012,-600 L225.24000000000012,-600 L225.24000000000012,-550 L217.56000000000012,-550 L217.56000000000012,-600 Z" fill="#f0f0f0" />
<path d="M225.24000000000012,-600 L232.92000000000013,-600 L232.92000000000013,-550 L225.24000000000012,-550 L225.24000000000012,-600 Z" fill="black" />
<path d="M232.92000000000013,-600 L240.60000000000014,-600 L240.60000000000014,-550 L232.92000000000013,-550 L232.92000000000013,-600 Z" fill="#f0f0f0" />
<path d="M240.60000000000014,-600 L248.28000000000014,-600 L248.28000000000014,-550 L240.60000000000014,-550 L240.60000000000014,-600 Z" fill="black" />
<path d="M248.28000000000014,-600 L255.96000000000015,-600 L255.96000000000015,-550 L248.28000000000014,-550 L248.28000000000014,-600 Z" fill="#f0f0f0" />
<path d="M255.96000000000015,-600 L263.64000000000016,-600 L263.64000000000016,-550 L255.96000000000015,-550 L255.96000000000015,-600 Z" fill="black" />
<path d="M263.64000000000016,-600 L271.32000000000016,-600 L271.32000000000016,-550 L263.64000000000016,-550 L263.64000000000016,-600 Z" fill="#f0f0f0" />
<path d="M271.32000000000016,-600 L279.00000000000017,-600 L279.00000000000017,-550 L271.32000000000016,-550 L271.32000000000016,-600 Z" fill="black" />
<path d="M279.00000000000017,-600 L286.6800000000002,-600 L286.6800000000002,-550 L279.00000000000017,-550 L279.00000000000017,-600 Z" fill="#f0f0f0" />
<path d="M286.6800000000002,-600 L294.3600000000002,-600 L294.3600000000002,-550 L286.6800000000002,-550 L286.6800000000002,-600 Z" fill="black" />
<path d="M294.3600000000002,-600 L302.0400000000002,-600 L302.0400000000002,-550 L294.3600000000002,-550 L294.3600000000002,-600 Z" fill="#f0f0f0" />
<path d="M302.0400000000002,-600 L309.7200000000002,-600 L309.7200000000002,-550 L302.0400000000002,-550 L302.0400000000002,-600 Z" fill="black" />
<path d="M309.7200000000002,-600 L317.4000000000002,-600 L317.4000000000002,-550 L309.7200000000002,-550 L309.7200000000002,-600 Z" fill="#f0f0f0" />
<path d="M317.4000000000002,-600 L325.0800000000002,-600 L325.0800000000002,-550 L317.4000000000002,-550 L317.4000000000002,-600 Z" fill="black" />
<path d="M325.0800000000002,-600 L332.7600000000002,-600 L332.7600000000002,-550 L325.0800000000002,-550 L325.0800000000002,-600 Z" fill="#f0f0f0" />
<path d="M332.7600000000002,-600 L340.4400000000002,-600 L340.4400000000002,-550 L332.7600000000002,-550 L332.7600000000002,-600 Z" fill="black" />
<path d="M340.4400000000002,-600 L348.12000000000023,-600 L348.12000000000023,-550 L340.4400000000002,-550 L340.4400000000002,-600 Z" fill="#f0f0f0" />
<path d="M348.12000000000023,-600 L355.80000000000024,-600 L355.80000000000024,-550 L348.12000000000023,-550 L348.12000000000023,-600 Z" fill="black" />
<path d="M355.80000000000024,-600 L363.48000000000025,-600 L363.48000000000025,-550 L355.80000000000024,-550 L355.80000000000024,-600 Z" fill="#f0f0f0" />
<path d="M363.48000000000025,-600 L371.16000000000025,-600 L371.16000000000025,-550 L363.48000000000025,-550 L363.48000000000025,-600 Z" fill="black" />
<path d="M371.16000000000025,-600 L378.84000000000026,-600 L378.84000000000026,-550 L371.16000000000025,-550 L371.16000000000025,-600 Z" fill="#f0f0f0" />
<path d="M378.84000000000026,-600 L386.52000000000027,-600 L386.52000000000027,-550 L378.84000000000026,-550 L378.84000000000026,-600 Z" fill="black" />
<path d="M386.52000000000027,-600 L394.2000000000003,-600 L394.2000000000003,-550 L386.52000000000027,-550 L386.52000000000027,-600 Z" fill="#f0f0f0" />
<path d="M394.2000000000003,-600 L401.8800000000003,-600 L401.8800000000003,-550 L394.2000000000003,-550 L394.2000000000003,-600 Z" fill="black" />
<path d="M401.8800000000003,-600 L409.5600000000003,-600 L409.5600000000003,-550 L401.8800000000003,-550 L401.8800000000003,-600 Z" fill="#f0f0f0" />
<path d="M409.5600000000003,-600 L417.2400000000003,-600 L417.2400000000003,-550 L409.5600000000003,-550 L409.5600000000003,-600 Z" fill="black" />
<path d="M417.2400000000003,-600 L424.9200000000003,-600 L424.9200000000003,-550 L417.2400000000003,-550 L417.2400000000003,-600 Z" fill="#f0f0f0" />
<path d="M424.9200000000003,-600 L432.6000000000003,-600 L432.6000000000003,-550 L424.9200000000003,-550 L424.9200000000003,-600 Z" fill="black" />
<text x="10.2" y="-610" font-size="26" fill="black" dy="0em">CRISPR</text>
<text x="16.0" y="-460" font-size="38" fill="black" dy="0em">II-C: aa6af7e9289c3558d3|cede6d698b9dd182f4|2cfac8e92fdc5683fc|380558|NZ_JH651379.1:395751-421536(REV)@1 (5090-11507)</text>
<path d="M207.0,-400 L246.4,-400 L246.4,-350 L207.0,-350 L177.0,-375.0 L207.0,-400 Z" fill="#5b5ea6" fill-opacity="0.8" stroke="#5b5ea6" stroke-width="4" />
<text x="177.0" y="-410" font-size="26" fill="black" dy="0em">Cas2</text>
<path d="M303.0,-400 L452.8,-400 L452.8,-350 L303.0,-350 L273.0,-375.0 L303.0,-400 Z" fill="#5b5ea6" fill-opacity="0.8" stroke="#5b5ea6" stroke-width="4" />
<text x="273.0" y="-320" font-size="26" fill="black" dy="0em">Cas1</text>
<path d="M485.0,-400 L1293.6000000000001,-400 L1293.6000000000001,-350 L485.0,-350 L455.0,-375.0 L485.0,-400 Z" fill="#efc050" fill-opacity="0.8" stroke="#efc050" stroke-width="4" />
<text x="455.0" y="-410" font-size="26" fill="black" dy="0em">Cas9</text>
<path d="M10.2,-400 L155.20000000000002,-400 L155.20000000000002,-350 L10.2,-350 L10.2,-400 Z" fill="white" stroke="white" stroke-width="4" />
<path d="M10.2,-400 L17.83157894736842,-400 L17.83157894736842,-350 L10.2,-350 L10.2,-400 Z" fill="black" />
<path d="M17.83157894736842,-400 L25.46315789473684,-400 L25.46315789473684,-350 L17.83157894736842,-350 L17.83157894736842,-400 Z" fill="#f0f0f0" />
<path d="M25.46315789473684,-400 L33.09473684210526,-400 L33.09473684210526,-350 L25.46315789473684,-350 L25.46315789473684,-400 Z" fill="black" />
<path d="M33.09473684210526,-400 L40.72631578947369,-400 L40.72631578947369,-350 L33.09473684210526,-350 L33.09473684210526,-400 Z" fill="#f0f0f0" />
<path d="M40.72631578947369,-400 L48.35789473684211,-400 L48.35789473684211,-350 L40.72631578947369,-350 L40.72631578947369,-400 Z" fill="black" />
<path d="M48.35789473684211,-400 L55.98947368421054,-400 L55.98947368421054,-350 L48.35789473684211,-350 L48.35789473684211,-400 Z" fill="#f0f0f0" />
<path d="M55.98947368421054,-400 L63.62105263157896,-400 L63.62105263157896,-350 L55.98947368421054,-350 L55.98947368421054,-400 Z" fill="black" />
<path d="M63.62105263157896,-400 L71.25263157894739,-400 L71.25263157894739,-350 L63.62105263157896,-350 L63.62105263157896,-400 Z" fill="#f0f0f0" />
<path d="M71.25263157894739,-400 L78.88421052631581,-400 L78.88421052631581,-350 L71.25263157894739,-350 L71.25263157894739,-400 Z" fill="black" />
<path d="M78.88421052631581,-400 L86.51578947368424,-400 L86.51578947368424,-350 L78.88421052631581,-350 L78.88421052631581,-400 Z" fill="#f0f0f0" />
<path d="M86.51578947368424,-400 L94.14736842105266,-400 L94.14736842105266,-350 L86.51578947368424,-350 L86.51578947368424,-400 Z" fill="black" />
<path d="M94.14736842105266,-400 L101.77894736842109,-400 L101.77894736842109,-350 L94.14736842105266,-350 L94.14736842105266,-400 Z" fill="#f0f0f0" />
<path d="M101.77894736842109,-400 L109.41052631578951,-400 L109.41052631578951,-350 L101.77894736842109,-350 L101.77894736842109,-400 Z" fill="black" />
<path d="M109.41052631578951,-400 L117.04210526315794,-400 L117.04210526315794,-350 L109.41052631578951,-350 L109.41052631578951,-400 Z" fill="#f0f0f0" />
<path d="M117.04210526315794,-400 L124.67368421052636,-400 L124.67368421052636,-350 L117.04210526315794,-350 L117.04210526315794,-400 Z" fill="black" />
<path d="M124.67368421052636,-400 L132.30526315789479,-400 L132.30526315789479,-350 L124.67368421052636,-350 L124.67368421052636,-400 Z" fill="#f0f0f0" />
<path d="M132.30526315789479,-400 L139.9368421052632,-400 L139.9368421052632,-350 L132.30526315789479,-350 L132.30526315789479,-400 Z" fill="black" />
<path d="M139.9368421052632,-400 L147.5684210526316,-400 L147.5684210526316,-350 L139.9368421052632,-350 L139.9368421052632,-400 Z" fill="#f0f0f0" />
<path d="M147.5684210526316,-400 L155.20000000000002,-400 L155.20000000000002,-350 L147.5684210526316,-350 L147.5684210526316,-400 Z" fill="black" />
<text x="10.2" y="-410" font-size="26" fill="black" dy="0em">CRISPR: II-C</text>
<text x="16.0" y="-260" font-size="38" fill="black" dy="0em">Ambiguous: aa6af7e9289c3558d3|00e9f918a990abd36d|00e9f918a990abd36d|884311|NZ_FOVL01000019.1:0-19824(REV)@1 (5915-11545)</text>
<path d="M40.2,-200 L79.0,-200 L79.0,-150 L40.2,-150 L10.2,-175.0 L40.2,-200 Z" fill="#5b5ea6" fill-opacity="0.8" stroke="#5b5ea6" stroke-width="4" />
<text x="10.2" y="-210" font-size="26" fill="black" dy="0em">Cas2</text>
<path d="M116.60000000000001,-200 L265.8,-200 L265.8,-150 L116.60000000000001,-150 L86.60000000000001,-175.0 L116.60000000000001,-200 Z" fill="#5b5ea6" fill-opacity="0.8" stroke="#5b5ea6" stroke-width="4" />
<text x="86.60000000000001" y="-120" font-size="26" fill="black" dy="0em">Cas1</text>
<path d="M295.20000000000005,-200 L1136.2,-200 L1136.2,-150 L295.20000000000005,-150 L265.20000000000005,-175.0 L295.20000000000005,-200 Z" fill="#efc050" fill-opacity="0.8" stroke="#efc050" stroke-width="4" />
<text x="265.20000000000005" y="-210" font-size="26" fill="black" dy="0em">Cas9</text>
</svg>