<?xml version="1.0" encoding="UTF-8"?>
<svg xmlns="http://www.w3.org/2000/svg" xmlns:xlink="http://www.w3.org/1999/xlink"
     width="1800" height="2600" viewBox="0 -2600 1800 2600">
<defs>
</defs>
<path d="M210,-20 L210,-2520" stroke="grey" stroke-width="1" fill="none" />
<text x="160" y="-2530" font-size="22" fill="grey" dy="0em">1000</text>
<path d="M410,-20 L410,-2520" stroke="grey" stroke-width="1" fill="none" />
<text x="360" y="-2530" font-size="22" fill="grey" dy="0em">2000</text>
<path d="M610,-20 L610,-2520" stroke="grey" stroke-width="1" fill="none" />
<text x="560" y="-2530" font-size="22" fill="grey" dy="0em">3000</text>
<path d="M810,-20 L810,-2520" stroke="grey" stroke-width="1" fill="none" />
<text x="760" y="-2530" font-size="22" fill="grey" dy="0em">4000</text>
<path d="M1010,-20 L1010,-2520" stroke="grey" stroke-width="1" fill="none" />
<text x="960" y="-2530" font-size="22" fill="grey" dy="0em">5000</text>
<path d="M1210,-20 L1210,-2520" stroke="grey" stroke-width="1" fill="none" />
<text x="1160" y="-2530" font-size="22" fill="grey" dy="0em">6000</text>
<path d="M1410,-20 L1410,-2520" stroke="grey" stroke-width="1" fill="none" />
<text x="1360" y="-2530" font-size="22" fill="grey" dy="0em">7000</text>
<path d="M1610,-20 L1610,-2520" stroke="grey" stroke-width="1" fill="none" />
<text x="1560" y="-2530" font-size="22" fill="grey" dy="0em">8000</text>
<text x="16.0" y="-2460" font-size="38" fill="black" dy="0em">V-F2: c15257c28ad9a20cdd|0ef6d63f78b0feeea4|0ef6d63f78b0feeea4|7342671|NZ_JACBZQ010000001.1:4001229-4026741(REV)@1 (13013-21514)</text>
<path d="M10.2,-2400 L272.8,-2400 L302.8,-2375.0 L272.8,-2350 L10.2,-2350 L10.2,-2400 Z" fill="#efc050" fill-opacity="0.8" stroke="#efc050" stroke-width="4" />
<text x="10.2" y="-2410" font-size="26" fill="black" dy="0em">Cas12f2</text>
<path d="M302.8,-2400 L324.20000000000005,-2400 L354.20000000000005,-2375.0 L324.20000000000005,-2350 L302.8,-2350 L302.8,-2400 Z" fill="#d3c9c1" fill-opacity="0.8" stroke="#d3c9c1" stroke-width="4" />
<text x="302.8" y="-2320" font-size="20" fill="black" dy="0em">15</text>
<path d="M381.20000000000005,-2400 L687.6,-2400 L687.6,-2350 L381.20000000000005,-2350 L351.20000000000005,-2375.0 L381.20000000000005,-2400 Z" fill="#ff80e6" fill-opacity="0.3" stroke="#ff80e6" stroke-width="4" />
<text x="351.20000000000005" y="-2410" font-size="26" fill="black" dy="0em">(AbiEii)</text>
<path d="M719.0,-2400 L912.6,-2400 L942.6,-2375.0 L912.6,-2350 L719.0,-2350 L719.0,-2400 Z" fill="#d3c9c1" fill-opacity="0.8" stroke="#d3c9c1" stroke-width="4" />
<text x="719.0" y="-2320" font-size="20" fill="black" dy="0em">17</text>
<path d="M966.6,-2400 L1110.4,-2400 L1140.4,-2375.0 L1110.4,-2350 L966.6,-2350 L966.6,-2400 Z" fill="#ff80e6" fill-opacity="0.3" stroke="#ff80e6" stroke-width="4" />
<text x="966.6" y="-2410" font-size="26" fill="black" dy="0em">(AbiEii)</text>
<path d="M1137.8,-2400 L1311.0,-2400 L1341.0,-2375.0 L1311.0,-2350 L1137.8,-2350 L1137.8,-2400 Z" fill="#d3c9c1" fill-opacity="0.8" stroke="#d3c9c1" stroke-width="4" />
<text x="1137.8" y="-2320" font-size="20" fill="black" dy="0em">19</text>
<path d="M1358.6000000000001,-2400 L1421.4,-2400 L1451.4,-2375.0 L1421.4,-2350 L1358.6000000000001,-2350 L1358.6000000000001,-2400 Z" fill="#d3c9c1" fill-opacity="0.8" stroke="#d3c9c1" stroke-width="4" />
<text x="1358.6000000000001" y="-2410" font-size="20" fill="black" dy="0em">20</text>
<path d="M1459.8000000000002,-2400 L1589.8000000000002,-2400 L1619.8000000000002,-2375.0 L1589.8000000000002,-2350 L1459.8000000000002,-2350 L1459.8000000000002,-2400 Z" fill="#ff80e6" fill-opacity="0.3" stroke="#ff80e6" stroke-width="4" />
<text x="1459.8000000000002" y="-2320" font-size="26" fill="black" dy="0em">(Csa3)</text>
<path d="M1653.4,-2400 L1710.4,-2400 L1710.4,-2350 L1653.4,-2350 L1653.4,-2400 Z" fill="white" stroke="white" stroke-width="4" />
<path d="M1653.4,-2400 L1658.5818181818183,-2400 L1658.5818181818183,-2350 L1653.4,-2350 L1653.4,-2400 Z" fill="black" />
<path d="M1658.5818181818183,-2400 L1663.7636363636366,-2400 L1663.7636363636366,-2350 L1658.5818181818183,-2350 L1658.5818181818183,-2400 Z" fill="#f0f0f0" />
<path d="M1663.7636363636366,-2400 L1668.9454545454548,-2400 L1668.9454545454548,-2350 L1663.7636363636366,-2350 L1663.7636363636366,-2400 Z" fill="black" />
<path d="M1668.9454545454548,-2400 L1674.127272727273,-2400 L1674.127272727273,-2350 L1668.9454545454548,-2350 L1668.9454545454548,-2400 Z" fill="#f0f0f0" />
<path d="M1674.127272727273,-2400 L1679.3090909090913,-2400 L1679.3090909090913,-2350 L1674.127272727273,-2350 L1674.127272727273,-2400 Z" fill="black" />
<path d="M1679.3090909090913,-2400 L1684.4909090909096,-2400 L1684.4909090909096,-2350 L1679.3090909090913,-2350 L1679.3090909090913,-2400 Z" fill="#f0f0f0" />
<path d="M1684.4909090909096,-2400 L1689.6727272727278,-2400 L1689.6727272727278,-2350 L1684.4909090909096,-2350 L1684.4909090909096,-2400 Z" fill="black" />
<path d="M1689.6727272727278,-2400 L1694.854545454546,-2400 L1694.854545454546,-2350 L1689.6727272727278,-2350 L1689.6727272727278,-2400 Z" fill="#f0f0f0" />
<path d="M1694.854545454546,-2400 L1700.0363636363643,-2400 L1700.0363636363643,-2350 L1694.854545454546,-2350 L1694.854545454546,-2400 Z" fill="black" />
<path d="M1700.0363636363643,-2400 L1705.2181818181825,-2400 L1705.2181818181825,-2350 L1700.0363636363643,-2350 L1700.0363636363643,-2400 Z" fill="#f0f0f0" />
<path d="M1705.2181818181825,-2400 L1710.4000000000008,-2400 L1710.4000000000008,-2350 L1705.2181818181825,-2350 L1705.2181818181825,-2400 Z" fill="black" />
<text x="1653.4" y="-2410" font-size="26" fill="black" dy="0em">CRISPR</text>
<text x="16.0" y="-2260" font-size="38" fill="black" dy="0em">V-F2: c15257c28ad9a20cdd|e966b361633f900237|63b272cfb712db4a20|236311|NZ_JTJW01000009.1:203237-228737(REV)@1 (13001-14428)</text>
<path d="M10.2,-2200 L265.6,-2200 L295.6,-2175.0 L265.6,-2150 L10.2,-2150 L10.2,-2200 Z" fill="#efc050" fill-opacity="0.8" stroke="#efc050" stroke-width="4" />
<text x="10.2" y="-2210" font-size="26" fill="black" dy="0em">Cas12f2</text>
<text x="16.0" y="-2060" font-size="38" fill="black" dy="0em">V-F2: c15257c28ad9a20cdd|79bd8332bed9cd61fc|79bd8332bed9cd61fc|5868741|NZ_AP022563.1:1858785-1884024(FWD)@1 (12732-14192)</text>
<path d="M10.2,-2000 L272.2,-2000 L302.2,-1975.0 L272.2,-1950 L10.2,-1950 L10.2,-2000 Z" fill="#efc050" fill-opacity="0.8" stroke="#efc050" stroke-width="4" />
<text x="10.2" y="-2010" font-size="26" fill="black" dy="0em">Cas12f2</text>
<text x="16.0" y="-1860" font-size="38" fill="black" dy="0em">V-F2: c15257c28ad9a20cdd|56c205c1b5463a6c89|7d7606f2e71fa04bdf|1784551|NZ_QMEV01000040.1:6676-32260(FWD)@1 (13077-14537)</text>
<path d="M10.2,-1800 L272.2,-1800 L302.2,-1775.0 L272.2,-1750 L10.2,-1750 L10.2,-1800 Z" fill="#efc050" fill-opacity="0.8" stroke="#efc050" stroke-width="4" />
<text x="10.2" y="-1810" font-size="26" fill="black" dy="0em">Cas12f2</text>
<text x="16.0" y="-1660" font-size="38" fill="black" dy="0em">V-F2: c15257c28ad9a20cdd|55da322c5539e17ddf|55da322c5539e17ddf|920541|NZ_JMHT01000032.1:0-19397(REV)@1 (12737-14164)</text>
<path d="M10.2,-1600 L265.6,-1600 L295.6,-1575.0 L265.6,-1550 L10.2,-1550 L10.2,-1600 Z" fill="#efc050" fill-opacity="0.8" stroke="#efc050" stroke-width="4" />
<text x="10.2" y="-1610" font-size="26" fill="black" dy="0em">Cas12f2</text>
<text x="16.0" y="-1460" font-size="38" fill="black" dy="0em">V-F2: c15257c28ad9a20cdd|f8b6ce277931d67970|f8b6ce277931d67970|431081|NZ_CP012150.1:4981289-5006600(FWD)@1 (12811-14268)</text>
<path d="M10.2,-1400 L271.6,-1400 L301.6,-1375.0 L271.6,-1350 L10.2,-1350 L10.2,-1400 Z" fill="#efc050" fill-opacity="0.8" stroke="#efc050" stroke-width="4" />
<text x="10.2" y="-1410" font-size="26" fill="black" dy="0em">Cas12f2</text>
<text x="16.0" y="-1260" font-size="38" fill="black" dy="0em">V-F2: c15257c28ad9a20cdd|7ebcd314988fb6f4d2|7ebcd314988fb6f4d2|2127911|NZ_QGGF01000070.1:0-5846(REV)@1 (3430-4860)</text>
<path d="M10.2,-1200 L266.2,-1200 L296.2,-1175.0 L266.2,-1150 L10.2,-1150 L10.2,-1200 Z" fill="#efc050" fill-opacity="0.8" stroke="#efc050" stroke-width="4" />
<text x="10.2" y="-1210" font-size="26" fill="black" dy="0em">Cas12f2</text>
<text x="16.0" y="-1060" font-size="38" fill="black" dy="0em">V-F2: c15257c28ad9a20cdd|a66ea47a26a0819870|a66ea47a26a0819870|1728981|NZ_QGKS01000159.1:0-1986(REV)@1 (567-1985)</text>
<path d="M10.2,-1000 L263.8,-1000 L293.8,-975.0 L263.8,-950 L10.2,-950 L10.2,-1000 Z" fill="#efc050" fill-opacity="0.8" stroke="#efc050" stroke-width="4" />
<text x="10.2" y="-1010" font-size="26" fill="black" dy="0em">Cas12f2</text>
<text x="16.0" y="-860" font-size="38" fill="black" dy="0em">V-F2: c15257c28ad9a20cdd|6445527fb913eab17c|6445527fb913eab17c|6385171|WOYS01000018.1:16031-41642(FWD)@1 (13111-14568)</text>
<path d="M10.2,-800 L271.6,-800 L301.6,-775.0 L271.6,-750 L10.2,-750 L10.2,-800 Z" fill="#efc050" fill-opacity="0.8" stroke="#efc050" stroke-width="4" />
<text x="10.2" y="-810" font-size="26" fill="black" dy="0em">Cas12f2</text>
<text x="16.0" y="-660" font-size="38" fill="black" dy="0em">V-F2: c15257c28ad9a20cdd|9de73e4c6863116c4e|9de73e4c6863116c4e|431081|NZ_CP012150.1:1094180-1119494(REV)@2 (12845-14272)</text>
<path d="M10.2,-600 L265.6,-600 L295.6,-575.0 L265.6,-550 L10.2,-550 L10.2,-600 Z" fill="#efc050" fill-opacity="0.8" stroke="#efc050" stroke-width="4" />
<text x="10.2" y="-610" font-size="26" fill="black" dy="0em">Cas12f2</text>
<text x="16.0" y="-460" font-size="38" fill="black" dy="0em">Ambiguous: c15257c28ad9a20cdd|56c205c1b5463a6c89|56c205c1b5463a6c89|921561|NZ_MPNT01000040.1:0-22320(FWD)@1 (9813-13931)</text>
<path d="M10.2,-400 L272.2,-400 L302.2,-375.0 L272.2,-350 L10.2,-350 L10.2,-400 Z" fill="#efc050" fill-opacity="0.8" stroke="#efc050" stroke-width="4" />
<text x="10.2" y="-410" font-size="26" fill="black" dy="0em">Cas12f2</text>
<path d="M331.20000000000005,-400 L371.20000000000005,-400 L401.20000000000005,-375.0 L371.20000000000005,-350 L331.20000000000005,-350 L331.20000000000005,-400 Z" fill="#d3c9c1" fill-opacity="0.8" stroke="#d3c9c1" stroke-width="4" />
<text x="331.20000000000005" y="-320" font-size="20" fill="black" dy="0em">12</text>
<path d="M491.40000000000003,-400 L833.8000000000001,-400 L833.8000000000001,-350 L491.40000000000003,-350 L461.40000000000003,-375.0 L491.40000000000003,-400 Z" fill="#efc050" fill-opacity="0.8" stroke="#efc050" stroke-width="4" />
<text x="461.40000000000003" y="-410" font-size="26" fill="black" dy="0em">Cas12f4</text>
<path d="M10.2,-200 L51.400000000000006,-200 L51.400000000000006,-150 L10.2,-150 L10.2,-200 Z" fill="white" stroke="white" stroke-width="4" />
<path d="M10.2,-200 L16.085714285714285,-200 L16.085714285714285,-150 L10.2,-150 L10.2,-200 Z" fill="black" />
<path d="M16.085714285714285,-200 L21.97142857142857,-200 L21.97142857142857,-150 L16.085714285714285,-150 L16.085714285714285,-200 Z" fill="#f0f0f0" />
<path d="M21.97142857142857,-200 L27.857142857142858,-200 L27.857142857142858,-150 L21.97142857142857,-150 L21.97142857142857,-200 Z" fill="black" />
<path d="M27.857142857142858,-200 L33.74285714285715,-200 L33.74285714285715,-150 L27.857142857142858,-150 L27.857142857142858,-200 Z" fill="#f0f0f0" />
<path d="M33.74285714285715,-200 L39.62857142857143,-200 L39.62857142857143,-150 L33.74285714285715,-150 L33.74285714285715,-200 Z" fill="black" />
<path d="M39.62857142857143,-200 L45.51428571428572,-200 L45.51428571428572,-150 L39.62857142857143,-150 L39.62857142857143,-200 Z" fill="#f0f0f0" />
<path d="M45.51428571428572,-200 L51.400000000000006,-200 L51.400000000000006,-150 L45.51428571428572,-150 L45.51428571428572,-200 Z" fill="black" />
<text x="10.2" y="-210" font-size="26" fill="black" dy="0em">CRISPR: I-E</text>
<text x="16.0" y="-260" font-size="38" fill="black" dy="0em">I-E: c15257c28ad9a20cdd|de49ffa11f48b2343f|de49ffa11f48b2343f|6341291|WTFV01000252.1:0-23341(FWD)_2 (21860-22066)</text>
</svg>