<?xml version="1.0" encoding="UTF-8"?>
<svg xmlns="http://www.w3.org/2000/svg" xmlns:xlink="http://www.w3.org/1999/xlink"
     width="163" height="400" viewBox="0 -400 163 400">
<defs>
</defs>
<path d="M10.2,-200 L73.6,-200 L73.6,-150 L10.2,-150 L10.2,-200 Z" fill="white" stroke="white" stroke-width="4" />
<path d="M10.2,-200 L17.244444444444444,-200 L17.244444444444444,-150 L10.2,-150 L10.2,-200 Z" fill="black" />
<path d="M17.244444444444444,-200 L24.288888888888888,-200 L24.288888888888888,-150 L17.244444444444444,-150 L17.244444444444444,-200 Z" fill="#f0f0f0" />
<path d="M24.288888888888888,-200 L31.333333333333332,-200 L31.333333333333332,-150 L24.288888888888888,-150 L24.288888888888888,-200 Z" fill="black" />
<path d="M31.333333333333332,-200 L38.37777777777778,-200 L38.37777777777778,-150 L31.333333333333332,-150 L31.333333333333332,-200 Z" fill="#f0f0f0" />
<path d="M38.37777777777778,-200 L45.422222222222224,-200 L45.422222222222224,-150 L38.37777777777778,-150 L38.37777777777778,-200 Z" fill="black" />
<path d="M45.422222222222224,-200 L52.46666666666667,-200 L52.46666666666667,-150 L45.422222222222224,-150 L45.422222222222224,-200 Z" fill="#f0f0f0" />
<path d="M52.46666666666667,-200 L59.51111111111111,-200 L59.51111111111111,-150 L52.46666666666667,-150 L52.46666666666667,-200 Z" fill="black" />
<path d="M59.51111111111111,-200 L66.55555555555556,-200 L66.55555555555556,-150 L59.51111111111111,-150 L59.51111111111111,-200 Z" fill="#f0f0f0" />
<path d="M66.55555555555556,-200 L73.6,-200 L73.6,-150 L66.55555555555556,-150 L66.55555555555556,-200 Z" fill="black" />
<text x="10.2" y="-210" font-size="26" fill="black" dy="0em">CRISPR</text>
<text x="16.0" y="-260" font-size="38" fill="black" dy="0em">Unknown: 9a8a6e441d6dea8617|6c77dac62c5da2c756|7fbb7c9bc9060c548f|5324001|NZ_CP039268.1:720712-746008(FWD)_1 (24486-24803)</text>
</svg>