<?xml version="1.0" encoding="UTF-8"?>
<svg xmlns="http://www.w3.org/2000/svg" xmlns:xlink="http://www.w3.org/1999/xlink"
     width="222" height="1000" viewBox="0 -1000 222 1000">
<defs>
</defs>
<path d="M210,-20 L210,-920" stroke="grey" stroke-width="1" fill="none" />
<text x="160" y="-930" font-size="22" fill="grey" dy="0em">1000</text>
<path d="M10.2,-800 L54.2,-800 L54.2,-750 L10.2,-750 L10.2,-800 Z" fill="white" stroke="white" stroke-width="4" />
<path d="M10.2,-800 L16.485714285714284,-800 L16.485714285714284,-750 L10.2,-750 L10.2,-800 Z" fill="black" />
<path d="M16.485714285714284,-800 L22.77142857142857,-800 L22.77142857142857,-750 L16.485714285714284,-750 L16.485714285714284,-800 Z" fill="#f0f0f0" />
<path d="M22.77142857142857,-800 L29.057142857142853,-800 L29.057142857142853,-750 L22.77142857142857,-750 L22.77142857142857,-800 Z" fill="black" />
<path d="M29.057142857142853,-800 L35.34285714285714,-800 L35.34285714285714,-750 L29.057142857142853,-750 L29.057142857142853,-800 Z" fill="#f0f0f0" />
<path d="M35.34285714285714,-800 L41.628571428571426,-800 L41.628571428571426,-750 L35.34285714285714,-750 L35.34285714285714,-800 Z" fill="black" />
<path d="M41.628571428571426,-800 L47.91428571428571,-800 L47.91428571428571,-750 L41.628571428571426,-750 L41.628571428571426,-800 Z" fill="#f0f0f0" />
<path d="M47.91428571428571,-800 L54.199999999999996,-800 L54.199999999999996,-750 L47.91428571428571,-750 L47.91428571428571,-800 Z" fill="black" />
<text x="10.2" y="-810" font-size="26" fill="black" dy="0em">CRISPR</text>
<text x="16.0" y="-860" font-size="38" fill="black" dy="0em">Unknown: 6bf6c4c7da68779d7a|05bea63ebceaf8a404|c70c7acafcda55aa94|2704121|NZ_SUME01000009.1:114870-140685(REV)_1 (9991-10211)</text>
<path d="M10.2,-600 L83.2,-600 L83.2,-550 L10.2,-550 L10.2,-600 Z" fill="white" stroke="white" stroke-width="4" />
<path d="M10.2,-600 L16.836363636363636,-600 L16.836363636363636,-550 L10.2,-550 L10.2,-600 Z" fill="black" />
<path d="M16.836363636363636,-600 L23.472727272727273,-600 L23.472727272727273,-550 L16.836363636363636,-550 L16.836363636363636,-600 Z" fill="#f0f0f0" />
<path d="M23.472727272727273,-600 L30.10909090909091,-600 L30.10909090909091,-550 L23.472727272727273,-550 L23.472727272727273,-600 Z" fill="black" />
<path d="M30.10909090909091,-600 L36.74545454545455,-600 L36.74545454545455,-550 L30.10909090909091,-550 L30.10909090909091,-600 Z" fill="#f0f0f0" />
<path d="M36.74545454545455,-600 L43.38181818181819,-600 L43.38181818181819,-550 L36.74545454545455,-550 L36.74545454545455,-600 Z" fill="black" />
<path d="M43.38181818181819,-600 L50.01818181818183,-600 L50.01818181818183,-550 L43.38181818181819,-550 L43.38181818181819,-600 Z" fill="#f0f0f0" />
<path d="M50.01818181818183,-600 L56.65454545454547,-600 L56.65454545454547,-550 L50.01818181818183,-550 L50.01818181818183,-600 Z" fill="black" />
<path d="M56.65454545454547,-600 L63.29090909090911,-600 L63.29090909090911,-550 L56.65454545454547,-550 L56.65454545454547,-600 Z" fill="#f0f0f0" />
<path d="M63.29090909090911,-600 L69.92727272727275,-600 L69.92727272727275,-550 L63.29090909090911,-550 L63.29090909090911,-600 Z" fill="black" />
<path d="M69.92727272727275,-600 L76.56363636363639,-600 L76.56363636363639,-550 L69.92727272727275,-550 L69.92727272727275,-600 Z" fill="#f0f0f0" />
<path d="M76.56363636363639,-600 L83.20000000000003,-600 L83.20000000000003,-550 L76.56363636363639,-550 L76.56363636363639,-600 Z" fill="black" />
<text x="10.2" y="-610" font-size="26" fill="black" dy="0em">CRISPR</text>
<text x="16.0" y="-660" font-size="38" fill="black" dy="0em">Unknown: 6bf6c4c7da68779d7a|67975483abd38d808e|67975483abd38d808e|1622601|NZ_PVBS01000003.1:176686-202258(REV)_2 (10416-10781)</text>
<path d="M10.2,-400 L131.8,-400 L131.8,-350 L10.2,-350 L10.2,-400 Z" fill="white" stroke="white" stroke-width="4" />
<path d="M10.2,-400 L16.599999999999998,-400 L16.599999999999998,-350 L10.2,-350 L10.2,-400 Z" fill="black" />
<path d="M16.599999999999998,-400 L22.999999999999996,-400 L22.999999999999996,-350 L16.599999999999998,-350 L16.599999999999998,-400 Z" fill="#f0f0f0" />
<path d="M22.999999999999996,-400 L29.399999999999995,-400 L29.399999999999995,-350 L22.999999999999996,-350 L22.999999999999996,-400 Z" fill="black" />
<path d="M29.399999999999995,-400 L35.8,-400 L35.8,-350 L29.399999999999995,-350 L29.399999999999995,-400 Z" fill="#f0f0f0" />
<path d="M35.8,-400 L42.199999999999996,-400 L42.199999999999996,-350 L35.8,-350 L35.8,-400 Z" fill="black" />
<path d="M42.199999999999996,-400 L48.599999999999994,-400 L48.599999999999994,-350 L42.199999999999996,-350 L42.199999999999996,-400 Z" fill="#f0f0f0" />
<path d="M48.599999999999994,-400 L54.99999999999999,-400 L54.99999999999999,-350 L48.599999999999994,-350 L48.599999999999994,-400 Z" fill="black" />
<path d="M54.99999999999999,-400 L61.39999999999999,-400 L61.39999999999999,-350 L54.99999999999999,-350 L54.99999999999999,-400 Z" fill="#f0f0f0" />
<path d="M61.39999999999999,-400 L67.8,-400 L67.8,-350 L61.39999999999999,-350 L61.39999999999999,-400 Z" fill="black" />
<path d="M67.8,-400 L74.2,-400 L74.2,-350 L67.8,-350 L67.8,-400 Z" fill="#f0f0f0" />
<path d="M74.2,-400 L80.60000000000001,-400 L80.60000000000001,-350 L74.2,-350 L74.2,-400 Z" fill="black" />
<path d="M80.60000000000001,-400 L87.00000000000001,-400 L87.00000000000001,-350 L80.60000000000001,-350 L80.60000000000001,-400 Z" fill="#f0f0f0" />
<path d="M87.00000000000001,-400 L93.40000000000002,-400 L93.40000000000002,-350 L87.00000000000001,-350 L87.00000000000001,-400 Z" fill="black" />
<path d="M93.40000000000002,-400 L99.80000000000003,-400 L99.80000000000003,-350 L93.40000000000002,-350 L93.40000000000002,-400 Z" fill="#f0f0f0" />
<path d="M99.80000000000003,-400 L106.20000000000003,-400 L106.20000000000003,-350 L99.80000000000003,-350 L99.80000000000003,-400 Z" fill="black" />
<path d="M106.20000000000003,-400 L112.60000000000004,-400 L112.60000000000004,-350 L106.20000000000003,-350 L106.20000000000003,-400 Z" fill="#f0f0f0" />
<path d="M112.60000000000004,-400 L119.00000000000004,-400 L119.00000000000004,-350 L112.60000000000004,-350 L112.60000000000004,-400 Z" fill="black" />
<path d="M119.00000000000004,-400 L125.40000000000005,-400 L125.40000000000005,-350 L119.00000000000004,-350 L119.00000000000004,-400 Z" fill="#f0f0f0" />
<path d="M125.40000000000005,-400 L131.80000000000004,-400 L131.80000000000004,-350 L125.40000000000005,-350 L125.40000000000005,-400 Z" fill="black" />
<text x="10.2" y="-410" font-size="26" fill="black" dy="0em">CRISPR</text>
<text x="16.0" y="-460" font-size="38" fill="black" dy="0em">Unknown: 6bf6c4c7da68779d7a|05bea63ebceaf8a404|ac74770fb6b96fa37b|2704241|NZ_SUKA01000008.1:140727-166542(REV)_3 (11086-11694)</text>
<path d="M10.2,-200 L107.2,-200 L107.2,-150 L10.2,-150 L10.2,-200 Z" fill="white" stroke="white" stroke-width="4" />
<path d="M10.2,-200 L16.666666666666664,-200 L16.666666666666664,-150 L10.2,-150 L10.2,-200 Z" fill="black" />
<path d="M16.666666666666664,-200 L23.133333333333333,-200 L23.133333333333333,-150 L16.666666666666664,-150 L16.666666666666664,-200 Z" fill="#f0f0f0" />
<path d="M23.133333333333333,-200 L29.6,-200 L29.6,-150 L23.133333333333333,-150 L23.133333333333333,-200 Z" fill="black" />
<path d="M29.6,-200 L36.06666666666667,-200 L36.06666666666667,-150 L29.6,-150 L29.6,-200 Z" fill="#f0f0f0" />
<path d="M36.06666666666667,-200 L42.53333333333334,-200 L42.53333333333334,-150 L36.06666666666667,-150 L36.06666666666667,-200 Z" fill="black" />
<path d="M42.53333333333334,-200 L49.00000000000001,-200 L49.00000000000001,-150 L42.53333333333334,-150 L42.53333333333334,-200 Z" fill="#f0f0f0" />
<path d="M49.00000000000001,-200 L55.466666666666676,-200 L55.466666666666676,-150 L49.00000000000001,-150 L49.00000000000001,-200 Z" fill="black" />
<path d="M55.466666666666676,-200 L61.933333333333344,-200 L61.933333333333344,-150 L55.466666666666676,-150 L55.466666666666676,-200 Z" fill="#f0f0f0" />
<path d="M61.933333333333344,-200 L68.4,-200 L68.4,-150 L61.933333333333344,-150 L61.933333333333344,-200 Z" fill="black" />
<path d="M68.4,-200 L74.86666666666667,-200 L74.86666666666667,-150 L68.4,-150 L68.4,-200 Z" fill="#f0f0f0" />
<path d="M74.86666666666667,-200 L81.33333333333334,-200 L81.33333333333334,-150 L74.86666666666667,-150 L74.86666666666667,-200 Z" fill="black" />
<path d="M81.33333333333334,-200 L87.80000000000001,-200 L87.80000000000001,-150 L81.33333333333334,-150 L81.33333333333334,-200 Z" fill="#f0f0f0" />
<path d="M87.80000000000001,-200 L94.26666666666668,-200 L94.26666666666668,-150 L87.80000000000001,-150 L87.80000000000001,-200 Z" fill="black" />
<path d="M94.26666666666668,-200 L100.73333333333335,-200 L100.73333333333335,-150 L94.26666666666668,-150 L94.26666666666668,-200 Z" fill="#f0f0f0" />
<path d="M100.73333333333335,-200 L107.20000000000002,-200 L107.20000000000002,-150 L100.73333333333335,-150 L100.73333333333335,-200 Z" fill="black" />
<text x="10.2" y="-210" font-size="26" fill="black" dy="0em">CRISPR</text>
<text x="16.0" y="-260" font-size="38" fill="black" dy="0em">Unknown: 6bf6c4c7da68779d7a|116b969fb96f1ea855|5e5e5929c9cc142e04|6088031|NZ_JAAKGS010000007.1:182929-208744(REV)_4 (11216-11701)</text>
</svg>