<?xml version="1.0" encoding="UTF-8"?>
<svg xmlns="http://www.w3.org/2000/svg" xmlns:xlink="http://www.w3.org/1999/xlink"
     width="2384" height="1000" viewBox="0 -1000 2384 1000">
<defs>
</defs>
<path d="M210,-20 L210,-920" stroke="grey" stroke-width="1" fill="none" />
<text x="160" y="-930" font-size="22" fill="grey" dy="0em">1000</text>
<path d="M410,-20 L410,-920" stroke="grey" stroke-width="1" fill="none" />
<text x="360" y="-930" font-size="22" fill="grey" dy="0em">2000</text>
<path d="M610,-20 L610,-920" stroke="grey" stroke-width="1" fill="none" />
<text x="560" y="-930" font-size="22" fill="grey" dy="0em">3000</text>
<path d="M810,-20 L810,-920" stroke="grey" stroke-width="1" fill="none" />
<text x="760" y="-930" font-size="22" fill="grey" dy="0em">4000</text>
<path d="M1010,-20 L1010,-920" stroke="grey" stroke-width="1" fill="none" />
<text x="960" y="-930" font-size="22" fill="grey" dy="0em">5000</text>
<path d="M1210,-20 L1210,-920" stroke="grey" stroke-width="1" fill="none" />
<text x="1160" y="-930" font-size="22" fill="grey" dy="0em">6000</text>
<path d="M1410,-20 L1410,-920" stroke="grey" stroke-width="1" fill="none" />
<text x="1360" y="-930" font-size="22" fill="grey" dy="0em">7000</text>
<path d="M1610,-20 L1610,-920" stroke="grey" stroke-width="1" fill="none" />
<text x="1560" y="-930" font-size="22" fill="grey" dy="0em">8000</text>
<path d="M1810,-20 L1810,-920" stroke="grey" stroke-width="1" fill="none" />
<text x="1760" y="-930" font-size="22" fill="grey" dy="0em">9000</text>
<path d="M2010,-20 L2010,-920" stroke="grey" stroke-width="1" fill="none" />
<text x="1960" y="-930" font-size="22" fill="grey" dy="0em">10000</text>
<path d="M2210,-20 L2210,-920" stroke="grey" stroke-width="1" fill="none" />
<text x="2160" y="-930" font-size="22" fill="grey" dy="0em">11000</text>
<text x="16.0" y="-860" font-size="38" fill="black" dy="0em">III-D: 4a23bcab7c50591a6a|595df7944d6898307f|595df7944d6898307f|1632971|NZ_PVWJ01000101.1:0-19316(REV)@1 (116-11537)</text>
<path d="M10.2,-800 L241.0,-800 L271.0,-775.0 L241.0,-750 L10.2,-750 L10.2,-800 Z" fill="#efc050" fill-opacity="0.8" stroke="#efc050" stroke-width="4" />
<text x="10.2" y="-810" font-size="26" fill="black" dy="0em">Csx10gr5</text>
<path d="M270.40000000000003,-800 L333.20000000000005,-800 L363.20000000000005,-775.0 L333.20000000000005,-750 L270.40000000000003,-750 L270.40000000000003,-800 Z" fill="#efc050" fill-opacity="0.8" stroke="#efc050" stroke-width="4" />
<text x="270.40000000000003" y="-720" font-size="26" fill="black" dy="0em">Csm2</text>
<path d="M364.0,-800 L516.2,-800 L546.2,-775.0 L516.2,-750 L364.0,-750 L364.0,-800 Z" fill="#efc050" fill-opacity="0.8" stroke="#efc050" stroke-width="4" />
<text x="364.0" y="-810" font-size="26" fill="black" dy="0em">Csm3gr7</text>
<path d="M550.8000000000001,-800 L710.8000000000001,-800 L740.8000000000001,-775.0 L710.8000000000001,-750 L550.8000000000001,-750 L550.8000000000001,-800 Z" fill="#efc050" fill-opacity="0.8" stroke="#efc050" stroke-width="4" />
<text x="550.8000000000001" y="-720" font-size="26" fill="black" dy="0em">Csm3</text>
<path d="M746.2,-800 L801.8000000000001,-800 L831.8000000000001,-775.0 L801.8000000000001,-750 L746.2,-750 L746.2,-800 Z" fill="#efc050" fill-opacity="0.8" stroke="#efc050" stroke-width="4" />
<text x="746.2" y="-810" font-size="26" fill="black" dy="0em">Csx19</text>
<path d="M833.0,-800 L1014.6000000000001,-800 L1044.6000000000001,-775.0 L1014.6000000000001,-750 L833.0,-750 L833.0,-800 Z" fill="#efc050" fill-opacity="0.8" stroke="#efc050" stroke-width="4" />
<text x="833.0" y="-720" font-size="26" fill="black" dy="0em">Csm3gr7</text>
<path d="M1047.0,-800 L1144.6000000000001,-800 L1174.6000000000001,-775.0 L1144.6000000000001,-750 L1047.0,-750 L1047.0,-800 Z" fill="#ff80e6" fill-opacity="0.8" stroke="#ff80e6" stroke-width="4" />
<text x="1047.0" y="-810" font-size="26" fill="black" dy="0em">Csx21</text>
<path d="M1205.8,-800 L1342.4,-800 L1342.4,-750 L1205.8,-750 L1175.8,-775.0 L1205.8,-800 Z" fill="#ff80e6" fill-opacity="0.8" stroke="#ff80e6" stroke-width="4" />
<text x="1175.8" y="-720" font-size="26" fill="black" dy="0em">Mem</text>
<path d="M1392.8000000000002,-800 L1485.6000000000001,-800 L1515.6000000000001,-775.0 L1485.6000000000001,-750 L1392.8000000000002,-750 L1392.8000000000002,-800 Z" fill="#d3c9c1" fill-opacity="0.8" stroke="#d3c9c1" stroke-width="4" />
<text x="1392.8000000000002" y="-810" font-size="20" fill="black" dy="0em">9</text>
<path d="M1545.0,-800 L1733.2,-800 L1733.2,-750 L1545.0,-750 L1515.0,-775.0 L1545.0,-800 Z" fill="#dd1424" fill-opacity="0.8" stroke="#dd1424" stroke-width="4" />
<text x="1515.0" y="-720" font-size="26" fill="black" dy="0em">Cas6</text>
<path d="M1772.4,-800 L2007.4,-800 L2007.4,-750 L1772.4,-750 L1742.4,-775.0 L1772.4,-800 Z" fill="#efc050" fill-opacity="0.3" stroke="#efc050" stroke-width="4" />
<text x="1742.4" y="-810" font-size="26" fill="black" dy="0em">(Cas12f2)</text>
<path d="M2036.4,-800 L2068.6,-800 L2098.6,-775.0 L2068.6,-750 L2036.4,-750 L2036.4,-800 Z" fill="#d3c9c1" fill-opacity="0.8" stroke="#d3c9c1" stroke-width="4" />
<text x="2036.4" y="-720" font-size="20" fill="black" dy="0em">12</text>
<path d="M2189.0,-800 L2207.4,-800 L2237.4,-775.0 L2207.4,-750 L2189.0,-750 L2189.0,-800 Z" fill="#d3c9c1" fill-opacity="0.8" stroke="#d3c9c1" stroke-width="4" />
<text x="2189.0" y="-810" font-size="20" fill="black" dy="0em">13</text>
<path d="M2124.6,-800 L2294.4,-800 L2294.4,-750 L2124.6,-750 L2124.6,-800 Z" fill="white" stroke="white" stroke-width="4" />
<path d="M2124.6,-800 L2131.9826086956523,-800 L2131.9826086956523,-750 L2124.6,-750 L2124.6,-800 Z" fill="black" />
<path d="M2131.9826086956523,-800 L2139.3652173913047,-800 L2139.3652173913047,-750 L2131.9826086956523,-750 L2131.9826086956523,-800 Z" fill="#f0f0f0" />
<path d="M2139.3652173913047,-800 L2146.747826086957,-800 L2146.747826086957,-750 L2139.3652173913047,-750 L2139.3652173913047,-800 Z" fill="black" />
<path d="M2146.747826086957,-800 L2154.1304347826094,-800 L2154.1304347826094,-750 L2146.747826086957,-750 L2146.747826086957,-800 Z" fill="#f0f0f0" />
<path d="M2154.1304347826094,-800 L2161.513043478262,-800 L2161.513043478262,-750 L2154.1304347826094,-750 L2154.1304347826094,-800 Z" fill="black" />
<path d="M2161.513043478262,-800 L2168.895652173914,-800 L2168.895652173914,-750 L2161.513043478262,-750 L2161.513043478262,-800 Z" fill="#f0f0f0" />
<path d="M2168.895652173914,-800 L2176.2782608695666,-800 L2176.2782608695666,-750 L2168.895652173914,-750 L2168.895652173914,-800 Z" fill="black" />
<path d="M2176.2782608695666,-800 L2183.660869565219,-800 L2183.660869565219,-750 L2176.2782608695666,-750 L2176.2782608695666,-800 Z" fill="#f0f0f0" />
<path d="M2183.660869565219,-800 L2191.0434782608713,-800 L2191.0434782608713,-750 L2183.660869565219,-750 L2183.660869565219,-800 Z" fill="black" />
<path d="M2191.0434782608713,-800 L2198.4260869565237,-800 L2198.4260869565237,-750 L2191.0434782608713,-750 L2191.0434782608713,-800 Z" fill="#f0f0f0" />
<path d="M2198.4260869565237,-800 L2205.808695652176,-800 L2205.808695652176,-750 L2198.4260869565237,-750 L2198.4260869565237,-800 Z" fill="black" />
<path d="M2205.808695652176,-800 L2213.1913043478285,-800 L2213.1913043478285,-750 L2205.808695652176,-750 L2205.808695652176,-800 Z" fill="#f0f0f0" />
<path d="M2213.1913043478285,-800 L2220.573913043481,-800 L2220.573913043481,-750 L2213.1913043478285,-750 L2213.1913043478285,-800 Z" fill="black" />
<path d="M2220.573913043481,-800 L2227.956521739133,-800 L2227.956521739133,-750 L2220.573913043481,-750 L2220.573913043481,-800 Z" fill="#f0f0f0" />
<path d="M2227.956521739133,-800 L2235.3391304347856,-800 L2235.3391304347856,-750 L2227.956521739133,-750 L2227.956521739133,-800 Z" fill="black" />
<path d="M2235.3391304347856,-800 L2242.721739130438,-800 L2242.721739130438,-750 L2235.3391304347856,-750 L2235.3391304347856,-800 Z" fill="#f0f0f0" />
<path d="M2242.721739130438,-800 L2250.1043478260904,-800 L2250.1043478260904,-750 L2242.721739130438,-750 L2242.721739130438,-800 Z" fill="black" />
<path d="M2250.1043478260904,-800 L2257.4869565217427,-800 L2257.4869565217427,-750 L2250.1043478260904,-750 L2250.1043478260904,-800 Z" fill="#f0f0f0" />
<path d="M2257.4869565217427,-800 L2264.869565217395,-800 L2264.869565217395,-750 L2257.4869565217427,-750 L2257.4869565217427,-800 Z" fill="black" />
<path d="M2264.869565217395,-800 L2272.2521739130475,-800 L2272.2521739130475,-750 L2264.869565217395,-750 L2264.869565217395,-800 Z" fill="#f0f0f0" />
<path d="M2272.2521739130475,-800 L2279.6347826087,-800 L2279.6347826087,-750 L2272.2521739130475,-750 L2272.2521739130475,-800 Z" fill="black" />
<path d="M2279.6347826087,-800 L2287.0173913043523,-800 L2287.0173913043523,-750 L2279.6347826087,-750 L2279.6347826087,-800 Z" fill="#f0f0f0" />
<path d="M2287.0173913043523,-800 L2294.4000000000046,-800 L2294.4000000000046,-750 L2287.0173913043523,-750 L2287.0173913043523,-800 Z" fill="black" />
<text x="2124.6" y="-810" font-size="26" fill="black" dy="0em">CRISPR</text>
<text x="16.0" y="-660" font-size="38" fill="black" dy="0em">V-F: 4a23bcab7c50591a6a|ee911e1ba914f20a52|5bfc24a524cfc357e5|469811|NZ_LGTE01000004.1:12995-38393(REV)@2 (15988-17514)</text>
<path d="M10.2,-600 L285.40000000000003,-600 L315.40000000000003,-575.0 L285.40000000000003,-550 L10.2,-550 L10.2,-600 Z" fill="#efc050" fill-opacity="0.8" stroke="#efc050" stroke-width="4" />
<text x="10.2" y="-610" font-size="26" fill="black" dy="0em">Cas12f4</text>
<path d="M10.2,-400 L134.0,-400 L134.0,-350 L10.2,-350 L10.2,-400 Z" fill="white" stroke="white" stroke-width="4" />
<path d="M10.2,-400 L17.48235294117647,-400 L17.48235294117647,-350 L10.2,-350 L10.2,-400 Z" fill="black" />
<path d="M17.48235294117647,-400 L24.76470588235294,-400 L24.76470588235294,-350 L17.48235294117647,-350 L17.48235294117647,-400 Z" fill="#f0f0f0" />
<path d="M24.76470588235294,-400 L32.04705882352941,-400 L32.04705882352941,-350 L24.76470588235294,-350 L24.76470588235294,-400 Z" fill="black" />
<path d="M32.04705882352941,-400 L39.32941176470588,-400 L39.32941176470588,-350 L32.04705882352941,-350 L32.04705882352941,-400 Z" fill="#f0f0f0" />
<path d="M39.32941176470588,-400 L46.61176470588235,-400 L46.61176470588235,-350 L39.32941176470588,-350 L39.32941176470588,-400 Z" fill="black" />
<path d="M46.61176470588235,-400 L53.89411764705882,-400 L53.89411764705882,-350 L46.61176470588235,-350 L46.61176470588235,-400 Z" fill="#f0f0f0" />
<path d="M53.89411764705882,-400 L61.17647058823529,-400 L61.17647058823529,-350 L53.89411764705882,-350 L53.89411764705882,-400 Z" fill="black" />
<path d="M61.17647058823529,-400 L68.45882352941176,-400 L68.45882352941176,-350 L61.17647058823529,-350 L61.17647058823529,-400 Z" fill="#f0f0f0" />
<path d="M68.45882352941176,-400 L75.74117647058823,-400 L75.74117647058823,-350 L68.45882352941176,-350 L68.45882352941176,-400 Z" fill="black" />
<path d="M75.74117647058823,-400 L83.0235294117647,-400 L83.0235294117647,-350 L75.74117647058823,-350 L75.74117647058823,-400 Z" fill="#f0f0f0" />
<path d="M83.0235294117647,-400 L90.30588235294117,-400 L90.30588235294117,-350 L83.0235294117647,-350 L83.0235294117647,-400 Z" fill="black" />
<path d="M90.30588235294117,-400 L97.58823529411764,-400 L97.58823529411764,-350 L90.30588235294117,-350 L90.30588235294117,-400 Z" fill="#f0f0f0" />
<path d="M97.58823529411764,-400 L104.87058823529411,-400 L104.87058823529411,-350 L97.58823529411764,-350 L97.58823529411764,-400 Z" fill="black" />
<path d="M104.87058823529411,-400 L112.15294117647058,-400 L112.15294117647058,-350 L104.87058823529411,-350 L104.87058823529411,-400 Z" fill="#f0f0f0" />
<path d="M112.15294117647058,-400 L119.43529411764705,-400 L119.43529411764705,-350 L112.15294117647058,-350 L112.15294117647058,-400 Z" fill="black" />
<path d="M119.43529411764705,-400 L126.71764705882352,-400 L126.71764705882352,-350 L119.43529411764705,-350 L119.43529411764705,-400 Z" fill="#f0f0f0" />
<path d="M126.71764705882352,-400 L134.0,-400 L134.0,-350 L126.71764705882352,-350 L126.71764705882352,-400 Z" fill="black" />
<text x="10.2" y="-410" font-size="26" fill="black" dy="0em">CRISPR: I-D</text>
<text x="16.0" y="-460" font-size="38" fill="black" dy="0em">I-D: 4a23bcab7c50591a6a|b6af838936fc4f0df5|b6af838936fc4f0df5|8425061|NZ_CP063311.1:497371-522775(REV)_1 (7734-8353)</text>
<path d="M10.2,-200 L131.8,-200 L131.8,-150 L10.2,-150 L10.2,-200 Z" fill="white" stroke="white" stroke-width="4" />
<path d="M10.2,-200 L17.352941176470587,-200 L17.352941176470587,-150 L10.2,-150 L10.2,-200 Z" fill="black" />
<path d="M17.352941176470587,-200 L24.505882352941175,-200 L24.505882352941175,-150 L17.352941176470587,-150 L17.352941176470587,-200 Z" fill="#f0f0f0" />
<path d="M24.505882352941175,-200 L31.658823529411762,-200 L31.658823529411762,-150 L24.505882352941175,-150 L24.505882352941175,-200 Z" fill="black" />
<path d="M31.658823529411762,-200 L38.811764705882354,-200 L38.811764705882354,-150 L31.658823529411762,-150 L31.658823529411762,-200 Z" fill="#f0f0f0" />
<path d="M38.811764705882354,-200 L45.964705882352945,-200 L45.964705882352945,-150 L38.811764705882354,-150 L38.811764705882354,-200 Z" fill="black" />
<path d="M45.964705882352945,-200 L53.117647058823536,-200 L53.117647058823536,-150 L45.964705882352945,-150 L45.964705882352945,-200 Z" fill="#f0f0f0" />
<path d="M53.117647058823536,-200 L60.27058823529413,-200 L60.27058823529413,-150 L53.117647058823536,-150 L53.117647058823536,-200 Z" fill="black" />
<path d="M60.27058823529413,-200 L67.42352941176472,-200 L67.42352941176472,-150 L60.27058823529413,-150 L60.27058823529413,-200 Z" fill="#f0f0f0" />
<path d="M67.42352941176472,-200 L74.57647058823531,-200 L74.57647058823531,-150 L67.42352941176472,-150 L67.42352941176472,-200 Z" fill="black" />
<path d="M74.57647058823531,-200 L81.7294117647059,-200 L81.7294117647059,-150 L74.57647058823531,-150 L74.57647058823531,-200 Z" fill="#f0f0f0" />
<path d="M81.7294117647059,-200 L88.88235294117649,-200 L88.88235294117649,-150 L81.7294117647059,-150 L81.7294117647059,-200 Z" fill="black" />
<path d="M88.88235294117649,-200 L96.03529411764708,-200 L96.03529411764708,-150 L88.88235294117649,-150 L88.88235294117649,-200 Z" fill="#f0f0f0" />
<path d="M96.03529411764708,-200 L103.18823529411767,-200 L103.18823529411767,-150 L96.03529411764708,-150 L96.03529411764708,-200 Z" fill="black" />
<path d="M103.18823529411767,-200 L110.34117647058827,-200 L110.34117647058827,-150 L103.18823529411767,-150 L103.18823529411767,-200 Z" fill="#f0f0f0" />
<path d="M110.34117647058827,-200 L117.49411764705886,-200 L117.49411764705886,-150 L110.34117647058827,-150 L110.34117647058827,-200 Z" fill="black" />
<path d="M117.49411764705886,-200 L124.64705882352945,-200 L124.64705882352945,-150 L117.49411764705886,-150 L117.49411764705886,-200 Z" fill="#f0f0f0" />
<path d="M124.64705882352945,-200 L131.80000000000004,-200 L131.80000000000004,-150 L124.64705882352945,-150 L124.64705882352945,-200 Z" fill="black" />
<text x="10.2" y="-210" font-size="26" fill="black" dy="0em">CRISPR: I-D</text>
<text x="16.0" y="-260" font-size="38" fill="black" dy="0em">I-D: 4a23bcab7c50591a6a|b2eee4806b289ff4db|b2eee4806b289ff4db|1232561|NZ_AP018298.1:1440352-1465753(FWD)_2 (24028-24636)</text>
</svg>